Inter-Regular.ufo
<glyph name="plus" format="2">
  <advance width="1856.0"/>
  <unicode hex="002B"/>
  <guideline x="268.0" y="800.0" angle="0.0"/>
  <outline>
    <contour>
      <point x="816.0" y="140.0" type="line"/>
      <point x="1040.0" y="140.0" type="line"/>
      <point x="1040.0" y="1460.0" type="line"/>
      <point x="816.0" y="1460.0" type="line"/>
    </contour>
    <contour>
      <point x="268.0" y="688.0" type="line"/>
      <point x="1588.0" y="688.0" type="line"/>
      <point x="1588.0" y="912.0" type="line"/>
      <point x="268.0" y="912.0" type="line"/>
    </contour>
  </outline>
</glyph>
<glyph name="one" format="2">
  <advance width="1308.0"/>
  <unicode hex="0031"/>
  <outline>
    <contour>
      <point x="932.0" y="2048.0" type="line"/>
      <point x="684.0" y="2048.0" type="line"/>
      <point x="172.0" y="1708.0" type="line"/>
      <point x="172.0" y="1456.0" type="line"/>
      <point x="672.0" y="1788.0" type="line"/>
      <point x="684.0" y="1788.0" type="line"/>
      <point x="684.0" y="0.0" type="line"/>
      <point x="932.0" y="0.0" type="line"/>
    </contour>
  </outline>
</glyph>
<glyph name="d" format="2">
  <advance width="1748.0"/>
  <unicode hex="0064"/>
  <outline>
    <contour>
      <point x="796.0" y="-32.0" type="curve" smooth="yes"/>
      <point x="1092.0" y="-32.0"/>
      <point x="1192.0" y="152.0"/>
      <point x="1244.0" y="236.0" type="curve"/>
      <point x="1272.0" y="236.0" type="line"/>
      <point x="1272.0" y="0.0" type="line"/>
      <point x="1500.0" y="0.0" type="line"/>
      <point x="1500.0" y="2048.0" type="line"/>
      <point x="1264.0" y="2048.0" type="line"/>
      <point x="1264.0" y="1292.0" type="line"/>
      <point x="1244.0" y="1292.0" type="line"/>
      <point x="1192.0" y="1372.0"/>
      <point x="1100.0" y="1556.0"/>
      <point x="800.0" y="1556.0" type="curve" smooth="yes"/>
      <point x="412.0" y="1556.0"/>
      <point x="144.0" y="1248.0"/>
      <point x="144.0" y="764.0" type="curve" smooth="yes"/>
      <point x="144.0" y="276.0"/>
      <point x="412.0" y="-32.0"/>
    </contour>
    <contour>
      <point x="828.0" y="180.0" type="curve" smooth="yes"/>
      <point x="532.0" y="180.0"/>
      <point x="380.0" y="440.0"/>
      <point x="380.0" y="768.0" type="curve" smooth="yes"/>
      <point x="380.0" y="1092.0"/>
      <point x="528.0" y="1344.0"/>
      <point x="828.0" y="1344.0" type="curve" smooth="yes"/>
      <point x="1116.0" y="1344.0"/>
      <point x="1268.0" y="1112.0"/>
      <point x="1268.0" y="768.0" type="curve" smooth="yes"/>
      <point x="1268.0" y="420.0"/>
      <point x="1112.0" y="180.0"/>
    </contour>
  </outline>
</glyph>
<glyph name="y" format="2">
  <advance width="1570.0"/>
  <unicode hex="0079"/>
  <guideline x="776.0" y="1488.0" angle="90.0"/>
  <outline>
    <contour>
      <point x="368.0" y="-572.0" type="curve" smooth="yes"/>
      <point x="581.0" y="-572.0"/>
      <point x="732.0" y="-459.0"/>
      <point x="820.0" y="-224.0" type="curve" smooth="yes"/>
      <point x="1474.0" y="1532.0" type="line"/>
      <point x="1216.0" y="1536.0" type="line"/>
      <point x="792.0" y="312.0" type="line"/>
      <point x="776.0" y="312.0" type="line"/>
      <point x="352.0" y="1536.0" type="line"/>
      <point x="96.0" y="1536.0" type="line"/>
      <point x="664.0" y="-8.0" type="line"/>
      <point x="620.0" y="-128.0" type="line" smooth="yes"/>
      <point x="536.0" y="-358.0"/>
      <point x="428.0" y="-380.0"/>
      <point x="256.0" y="-336.0" type="curve"/>
      <point x="196.0" y="-544.0" type="line"/>
      <point x="220.0" y="-556.0"/>
      <point x="288.0" y="-572.0"/>
    </contour>
  </outline>
</glyph>
<glyph name="asciitilde" format="2">
  <advance width="1856.0"/>
  <unicode hex="007E"/>
  <guideline x="928.0" y="812.0" angle="320.0"/>
  <outline>
    <contour>
      <point x="232.0" y="608.0" type="curve"/>
      <point x="448.0" y="608.0" type="line"/>
      <point x="445.0" y="782.0"/>
      <point x="524.0" y="852.0"/>
      <point x="632.0" y="852.0" type="curve" smooth="yes"/>
      <point x="703.0" y="852.0"/>
      <point x="750.0" y="821.0"/>
      <point x="848.0" y="736.0" type="curve" smooth="yes"/>
      <point x="994.0" y="609.0"/>
      <point x="1092.0" y="552.0"/>
      <point x="1228.0" y="552.0" type="curve" smooth="yes"/>
      <point x="1432.0" y="552.0"/>
      <point x="1630.0" y="680.0"/>
      <point x="1624.0" y="1012.0" type="curve"/>
      <point x="1408.0" y="1012.0" type="line"/>
      <point x="1411.0" y="853.0"/>
      <point x="1338.0" y="768.0"/>
      <point x="1224.0" y="768.0" type="curve" smooth="yes"/>
      <point x="1153.0" y="768.0"/>
      <point x="1106.0" y="799.0"/>
      <point x="1008.0" y="884.0" type="curve" smooth="yes"/>
      <point x="862.0" y="1011.0"/>
      <point x="764.0" y="1068.0"/>
      <point x="628.0" y="1068.0" type="curve" smooth="yes"/>
      <point x="424.0" y="1068.0"/>
      <point x="226.0" y="940.0"/>
    </contour>
  </outline>
</glyph>
<glyph name="dieresis" format="2">
  <advance width="1664.0"/>
  <unicode hex="00A8"/>
  <guideline x="354.0" y="1984.0" angle="0.0"/>
  <outline>
    <contour>
      <point x="544.0" y="1792.0" type="curve" smooth="yes"/>
      <point x="636.0" y="1792.0"/>
      <point x="704.0" y="1868.0"/>
      <point x="704.0" y="1952.0" type="curve" smooth="yes"/>
      <point x="704.0" y="2044.0"/>
      <point x="636.0" y="2112.0"/>
      <point x="544.0" y="2112.0" type="curve" smooth="yes"/>
      <point x="460.0" y="2112.0"/>
      <point x="384.0" y="2044.0"/>
      <point x="384.0" y="1952.0" type="curve" smooth="yes"/>
      <point x="384.0" y="1868.0"/>
      <point x="460.0" y="1792.0"/>
    </contour>
    <contour>
      <point x="1120.0" y="1792.0" type="curve" smooth="yes"/>
      <point x="1212.0" y="1792.0"/>
      <point x="1280.0" y="1868.0"/>
      <point x="1280.0" y="1952.0" type="curve" smooth="yes"/>
      <point x="1280.0" y="2044.0"/>
      <point x="1212.0" y="2112.0"/>
      <point x="1120.0" y="2112.0" type="curve" smooth="yes"/>
      <point x="1036.0" y="2112.0"/>
      <point x="960.0" y="2044.0"/>
      <point x="960.0" y="1952.0" type="curve" smooth="yes"/>
      <point x="960.0" y="1868.0"/>
      <point x="1036.0" y="1792.0"/>
    </contour>
  </outline>
</glyph>
<glyph name="copyright" format="2">
  <advance width="2576.0"/>
  <unicode hex="00A9"/>
  <note>
Stroke R: 116
Stroke B: 160
</note>
  <outline>
    <contour>
      <point x="704.0" y="1024.0" type="curve" smooth="yes"/>
      <point x="704.0" y="696.0"/>
      <point x="970.0" y="430.0"/>
      <point x="1298.0" y="430.0" type="curve" smooth="yes"/>
      <point x="1582.0" y="430.0"/>
      <point x="1800.0" y="630.0"/>
      <point x="1838.0" y="896.0" type="curve"/>
      <point x="1596.0" y="896.0" type="line"/>
      <point x="1568.0" y="759.0"/>
      <point x="1452.0" y="662.0"/>
      <point x="1298.0" y="662.0" type="curve" smooth="yes"/>
      <point x="1098.0" y="662.0"/>
      <point x="936.0" y="824.0"/>
      <point x="936.0" y="1024.0" type="curve" smooth="yes"/>
      <point x="936.0" y="1224.0"/>
      <point x="1098.0" y="1386.0"/>
      <point x="1298.0" y="1386.0" type="curve" smooth="yes"/>
      <point x="1452.0" y="1386.0"/>
      <point x="1589.0" y="1289.0"/>
      <point x="1616.0" y="1152.0" type="curve"/>
      <point x="1858.0" y="1152.0" type="line"/>
      <point x="1820.0" y="1418.0"/>
      <point x="1582.0" y="1618.0"/>
      <point x="1298.0" y="1618.0" type="curve" smooth="yes"/>
      <point x="970.0" y="1618.0"/>
      <point x="704.0" y="1352.0"/>
    </contour>
    <component base="circlewhite"/>
  </outline>
</glyph>
<glyph name="registered" format="2">
  <advance width="1888.0"/>
  <unicode hex="00AE"/>
  <note>
Stroke L: 32
Stroke R: 96
Stroke B: 112
</note>
  <guideline x="2806.0" y="734.0" angle="0.0"/>
  <outline>
    <contour>
      <point x="664.0" y="916.0" type="line"/>
      <point x="826.0" y="916.0" type="line"/>
      <point x="826.0" y="1534.0" type="line"/>
      <point x="980.0" y="1534.0" type="line" smooth="yes"/>
      <point x="1018.0" y="1534.0"/>
      <point x="1086.0" y="1508.0"/>
      <point x="1086.0" y="1418.0" type="curve" smooth="yes"/>
      <point x="1086.0" y="1330.0"/>
      <point x="1020.0" y="1286.0"/>
      <point x="976.0" y="1286.0" type="curve" smooth="yes"/>
      <point x="756.0" y="1286.0" type="line"/>
      <point x="756.0" y="1166.0" type="line"/>
      <point x="1026.0" y="1166.0" type="line" smooth="yes"/>
      <point x="1124.0" y="1166.0"/>
      <point x="1264.0" y="1256.0"/>
      <point x="1264.0" y="1418.0" type="curve" smooth="yes"/>
      <point x="1264.0" y="1578.0"/>
      <point x="1128.0" y="1654.0"/>
      <point x="1038.0" y="1654.0" type="curve" smooth="yes"/>
      <point x="664.0" y="1654.0" type="line"/>
    </contour>
    <contour>
      <point x="1110.0" y="1264.0" type="line"/>
      <point x="936.0" y="1264.0" type="line"/>
      <point x="1116.0" y="916.0" type="line"/>
      <point x="1294.0" y="916.0" type="line"/>
    </contour>
    <contour>
      <point x="944.0" y="476.0" type="curve" smooth="yes"/>
      <point x="1386.0" y="476.0"/>
      <point x="1744.0" y="834.0"/>
      <point x="1744.0" y="1276.0" type="curve" smooth="yes"/>
      <point x="1744.0" y="1718.0"/>
      <point x="1386.0" y="2076.0"/>
      <point x="944.0" y="2076.0" type="curve" smooth="yes"/>
      <point x="502.0" y="2076.0"/>
      <point x="144.0" y="1718.0"/>
      <point x="144.0" y="1276.0" type="curve" smooth="yes"/>
      <point x="144.0" y="834.0"/>
      <point x="502.0" y="476.0"/>
    </contour>
    <contour>
      <point x="944.0" y="668.0" type="curve" smooth="yes"/>
      <point x="608.0" y="668.0"/>
      <point x="336.0" y="940.0"/>
      <point x="336.0" y="1276.0" type="curve" smooth="yes"/>
      <point x="336.0" y="1612.0"/>
      <point x="608.0" y="1884.0"/>
      <point x="944.0" y="1884.0" type="curve" smooth="yes"/>
      <point x="1280.0" y="1884.0"/>
      <point x="1552.0" y="1612.0"/>
      <point x="1552.0" y="1276.0" type="curve" smooth="yes"/>
      <point x="1552.0" y="940.0"/>
      <point x="1280.0" y="668.0"/>
    </contour>
  </outline>
</glyph>
<glyph name="divide" format="2">
  <advance width="1856.0"/>
  <unicode hex="00F7"/>
  <guideline x="268.0" y="800.0" angle="0.0"/>
  <outline>
    <contour>
      <point x="1568.0" y="912.0" type="line"/>
      <point x="288.0" y="912.0" type="line"/>
      <point x="288.0" y="688.0" type="line"/>
      <point x="1568.0" y="688.0" type="line"/>
    </contour>
    <contour>
      <point x="928.0" y="104.0" type="curve" smooth="yes"/>
      <point x="1024.0" y="104.0"/>
      <point x="1104.0" y="184.0"/>
      <point x="1104.0" y="284.0" type="curve" smooth="yes"/>
      <point x="1104.0" y="380.0"/>
      <point x="1024.0" y="460.0"/>
      <point x="928.0" y="460.0" type="curve" smooth="yes"/>
      <point x="828.0" y="460.0"/>
      <point x="748.0" y="380.0"/>
      <point x="748.0" y="284.0" type="curve" smooth="yes"/>
      <point x="748.0" y="184.0"/>
      <point x="828.0" y="104.0"/>
    </contour>
    <contour>
      <point x="928.0" y="1140.0" type="curve" smooth="yes"/>
      <point x="1024.0" y="1140.0"/>
      <point x="1104.0" y="1220.0"/>
      <point x="1104.0" y="1320.0" type="curve" smooth="yes"/>
      <point x="1104.0" y="1416.0"/>
      <point x="1024.0" y="1496.0"/>
      <point x="928.0" y="1496.0" type="curve" smooth="yes"/>
      <point x="828.0" y="1496.0"/>
      <point x="748.0" y="1416.0"/>
      <point x="748.0" y="1320.0" type="curve" smooth="yes"/>
      <point x="748.0" y="1220.0"/>
      <point x="828.0" y="1140.0"/>
    </contour>
  </outline>
</glyph>
<glyph name="Nsmallcap" format="2">
  <advance width="1650.0"/>
  <unicode hex="0274"/>
  <outline>
    <contour>
      <point x="1434.0" y="1536.0" type="line"/>
      <point x="1198.0" y="1536.0" type="line"/>
      <point x="1198.0" y="436.0" type="line"/>
      <point x="1178.0" y="436.0" type="line"/>
      <point x="444.0" y="1536.0" type="line"/>
      <point x="216.0" y="1536.0" type="line"/>
      <point x="216.0" y="0.0" type="line"/>
      <point x="452.0" y="0.0" type="line"/>
      <point x="452.0" y="1096.0" type="line"/>
      <point x="472.0" y="1096.0" type="line"/>
      <point x="1202.0" y="0.0" type="line"/>
      <point x="1434.0" y="0.0" type="line"/>
    </contour>
  </outline>
</glyph>
<glyph name="rturnrthook" format="2">
  <advance width="1100.0"/>
  <unicode hex="027B"/>
  <outline>
    <contour>
      <point x="996.0" y="-600.0" type="curve" smooth="yes"/>
      <point x="1040.0" y="-600.0"/>
      <point x="1096.0" y="-596.0"/>
      <point x="1132.0" y="-584.0" type="curve"/>
      <point x="1132.0" y="-400.0" type="line"/>
      <point x="1112.0" y="-408.0"/>
      <point x="1076.0" y="-408.0"/>
      <point x="1056.0" y="-408.0" type="curve" smooth="yes"/>
      <point x="909.0" y="-408.0"/>
      <point x="832.0" y="-334.0"/>
      <point x="832.0" y="-192.0" type="curve" smooth="yes"/>
      <point x="832.0" y="0.0" type="line"/>
      <point x="604.0" y="0.0" type="line"/>
      <point x="604.0" y="-192.0" type="line" smooth="yes"/>
      <point x="604.0" y="-456.0"/>
      <point x="772.0" y="-600.0"/>
    </contour>
    <component base="rturn"/>
  </outline>
</glyph>
<glyph name="zrthook" format="2">
  <advance width="1680.0"/>
  <unicode hex="0290"/>
  <outline>
    <contour>
      <point x="1140.0" y="0.0" type="line"/>
      <point x="1140.0" y="-192.0" type="line" smooth="yes"/>
      <point x="1140.0" y="-456.0"/>
      <point x="1316.0" y="-600.0"/>
      <point x="1544.0" y="-600.0" type="curve" smooth="yes"/>
      <point x="1588.0" y="-600.0"/>
      <point x="1644.0" y="-596.0"/>
      <point x="1680.0" y="-584.0" type="curve"/>
      <point x="1680.0" y="-380.0" type="line"/>
      <point x="1660.0" y="-388.0"/>
      <point x="1624.0" y="-388.0"/>
      <point x="1604.0" y="-388.0" type="curve" smooth="yes"/>
      <point x="1476.0" y="-388.0"/>
      <point x="1376.0" y="-352.0"/>
      <point x="1376.0" y="-192.0" type="curve" smooth="yes"/>
      <point x="1376.0" y="0.0" type="line"/>
    </contour>
    <component base="z"/>
  </outline>
</glyph>
<glyph name="commareversedmod" format="2">
  <advance width="752.0"/>
  <unicode hex="02BD"/>
  <outline>
    <contour>
      <point x="386.0" y="1364.0" type="curve"/>
      <point x="566.0" y="1364.0" type="line"/>
      <point x="540.0" y="1490.0"/>
      <point x="483.0" y="1760.0"/>
      <point x="454.0" y="2032.0" type="curve" smooth="yes"/>
      <point x="442.0" y="2144.0" type="line"/>
      <point x="186.0" y="2144.0" type="line"/>
      <point x="202.0" y="2036.0" type="line" smooth="yes"/>
      <point x="236.0" y="1808.0"/>
      <point x="338.0" y="1500.0"/>
    </contour>
  </outline>
</glyph>
<glyph name="caron" format="2">
  <advance width="1280.0"/>
  <unicode hex="02C7"/>
  <guideline x="754.0" y="1720.0" angle="0.0"/>
  <outline>
    <contour>
      <point x="432.0" y="2152.0" type="line"/>
      <point x="208.0" y="2152.0" type="line"/>
      <point x="208.0" y="2136.0" type="line"/>
      <point x="532.0" y="1720.0" type="line"/>
      <point x="748.0" y="1720.0" type="line"/>
      <point x="1072.0" y="2136.0" type="line"/>
      <point x="1072.0" y="2152.0" type="line"/>
      <point x="848.0" y="2152.0" type="line"/>
      <point x="640.0" y="1872.0" type="line"/>
    </contour>
  </outline>
</glyph>
<glyph name="breve" format="2">
  <advance width="1264.0"/>
  <unicode hex="02D8"/>
  <outline>
    <contour>
      <point x="828.0" y="2048.0" type="line"/>
      <point x="828.0" y="1944.0"/>
      <point x="772.0" y="1852.0"/>
      <point x="632.0" y="1852.0" type="curve" smooth="yes"/>
      <point x="492.0" y="1852.0"/>
      <point x="440.0" y="1944.0"/>
      <point x="440.0" y="2048.0" type="curve"/>
      <point x="220.0" y="2048.0" type="line"/>
      <point x="220.0" y="1832.0"/>
      <point x="380.0" y="1680.0"/>
      <point x="632.0" y="1680.0" type="curve" smooth="yes"/>
      <point x="888.0" y="1680.0"/>
      <point x="1048.0" y="1832.0"/>
      <point x="1048.0" y="2048.0" type="curve"/>
    </contour>
  </outline>
</glyph>
<glyph name="dotaccent" format="2">
  <advance width="672.0"/>
  <unicode hex="02D9"/>
  <outline>
    <contour>
      <point x="336.0" y="1792.0" type="curve" smooth="yes"/>
      <point x="428.0" y="1792.0"/>
      <point x="504.0" y="1864.0"/>
      <point x="504.0" y="1952.0" type="curve" smooth="yes"/>
      <point x="504.0" y="2040.0"/>
      <point x="428.0" y="2112.0"/>
      <point x="336.0" y="2112.0" type="curve" smooth="yes"/>
      <point x="244.0" y="2112.0"/>
      <point x="168.0" y="2040.0"/>
      <point x="168.0" y="1952.0" type="curve" smooth="yes"/>
      <point x="168.0" y="1864.0"/>
      <point x="244.0" y="1792.0"/>
    </contour>
  </outline>
</glyph>
<glyph name="dblgravecmb" format="2">
  <unicode hex="030F"/>
  <guideline x="-648.0" y="1776.0" angle="90.0"/>
  <outline>
    <contour>
      <point x="-958.0" y="1744.0" type="line"/>
      <point x="-750.0" y="1744.0" type="line"/>
      <point x="-994.0" y="2208.0" type="line"/>
      <point x="-1288.0" y="2208.0" type="line"/>
    </contour>
    <contour>
      <point x="-534.0" y="1744.0" type="line"/>
      <point x="-328.0" y="1744.0" type="line"/>
      <point x="-478.0" y="2208.0" type="line"/>
      <point x="-778.0" y="2208.0" type="line"/>
    </contour>
  </outline>
</glyph>
<glyph name="seagullsubnosp" format="2">
  <unicode hex="033C"/>
  <note>
position under "x".
offset curve settings:
L: 32,32,0%
R: 70,80,0%
B: 110,90,0%
</note>
  <guideline x="-760.0" y="-260.0" angle="90.0"/>
  <outline>
    <contour>
      <point x="-690.0" y="-514.0" type="line"/>
      <point x="-690.0" y="-403.0"/>
      <point x="-625.0" y="-344.0"/>
      <point x="-514.0" y="-344.0" type="curve" smooth="yes"/>
      <point x="-403.0" y="-344.0"/>
      <point x="-338.0" y="-403.0"/>
      <point x="-338.0" y="-514.0" type="curve"/>
      <point x="-198.0" y="-514.0" type="line"/>
      <point x="-198.0" y="-318.0"/>
      <point x="-321.0" y="-184.0"/>
      <point x="-514.0" y="-184.0" type="curve" smooth="yes"/>
      <point x="-707.0" y="-184.0"/>
      <point x="-830.0" y="-318.0"/>
      <point x="-830.0" y="-514.0" type="curve"/>
    </contour>
    <contour>
      <point x="-1182.0" y="-514.0" type="line"/>
      <point x="-1182.0" y="-403.0"/>
      <point x="-1117.0" y="-344.0"/>
      <point x="-1006.0" y="-344.0" type="curve" smooth="yes"/>
      <point x="-895.0" y="-344.0"/>
      <point x="-830.0" y="-403.0"/>
      <point x="-830.0" y="-514.0" type="curve"/>
      <point x="-690.0" y="-514.0" type="line"/>
      <point x="-690.0" y="-318.0"/>
      <point x="-813.0" y="-184.0"/>
      <point x="-1006.0" y="-184.0" type="curve" smooth="yes"/>
      <point x="-1199.0" y="-184.0"/>
      <point x="-1322.0" y="-318.0"/>
      <point x="-1322.0" y="-514.0" type="curve"/>
    </contour>
  </outline>
</glyph>
<glyph name="beta" format="2">
  <advance width="1668.0"/>
  <unicode hex="03B2"/>
  <outline>
    <contour>
      <point x="708.0" y="1184.0" type="line"/>
      <point x="708.0" y="980.0" type="line"/>
      <point x="904.0" y="980.0" type="line" smooth="yes"/>
      <point x="1128.0" y="980.0"/>
      <point x="1272.0" y="788.0"/>
      <point x="1272.0" y="588.0" type="curve" smooth="yes"/>
      <point x="1272.0" y="376.0"/>
      <point x="1112.0" y="192.0"/>
      <point x="852.0" y="192.0" type="curve" smooth="yes"/>
      <point x="604.0" y="192.0"/>
      <point x="452.0" y="360.0"/>
      <point x="452.0" y="556.0" type="curve"/>
      <point x="452.0" y="164.0" type="line"/>
      <point x="468.0" y="172.0" type="line"/>
      <point x="580.0" y="16.0"/>
      <point x="732.0" y="-28.0"/>
      <point x="880.0" y="-28.0" type="curve" smooth="yes"/>
      <point x="1244.0" y="-28.0"/>
      <point x="1508.0" y="240.0"/>
      <point x="1508.0" y="588.0" type="curve" smooth="yes"/>
      <point x="1508.0" y="876.0"/>
      <point x="1328.0" y="1184.0"/>
      <point x="908.0" y="1184.0" type="curve" smooth="yes"/>
    </contour>
    <contour>
      <point x="824.0" y="2076.0" type="curve" smooth="yes"/>
      <point x="472.0" y="2076.0"/>
      <point x="216.0" y="1840.0"/>
      <point x="216.0" y="1524.0" type="curve"/>
      <point x="216.0" y="-576.0" type="line"/>
      <point x="452.0" y="-576.0" type="line"/>
      <point x="452.0" y="1524.0" type="line" smooth="yes"/>
      <point x="452.0" y="1720.0"/>
      <point x="620.0" y="1856.0"/>
      <point x="824.0" y="1856.0" type="curve" smooth="yes"/>
      <point x="1028.0" y="1856.0"/>
      <point x="1188.0" y="1720.0"/>
      <point x="1188.0" y="1536.0" type="curve" smooth="yes"/>
      <point x="1188.0" y="1364.0"/>
      <point x="1052.0" y="1200.0"/>
      <point x="820.0" y="1200.0" type="curve" smooth="yes"/>
      <point x="708.0" y="1200.0" type="line"/>
      <point x="708.0" y="996.0" type="line"/>
      <point x="824.0" y="996.0" type="line" smooth="yes"/>
      <point x="1232.0" y="996.0"/>
      <point x="1420.0" y="1284.0"/>
      <point x="1420.0" y="1536.0" type="curve" smooth="yes"/>
      <point x="1420.0" y="1804.0"/>
      <point x="1204.0" y="2076.0"/>
    </contour>
  </outline>
</glyph>
<glyph name="chi" format="2">
  <advance width="1688.0"/>
  <unicode hex="03C7"/>
  <note>
stroke R: 110, 50%
stroke B: ({Filter="OffsetCurve;250;200;1;0.5;";})
</note>
  <outline>
    <contour>
      <point x="198.0" y="-576.0" type="line"/>
      <point x="448.0" y="-576.0" type="line"/>
      <point x="886.0" y="262.0" type="line"/>
      <point x="1172.0" y="-310.0" type="line" smooth="yes"/>
      <point x="1283.0" y="-532.0"/>
      <point x="1370.0" y="-576.0"/>
      <point x="1598.0" y="-576.0" type="curve" smooth="yes"/>
      <point x="1656.0" y="-576.0" type="line"/>
      <point x="1656.0" y="-356.0" type="line"/>
      <point x="1598.0" y="-356.0" type="line" smooth="yes"/>
      <point x="1462.0" y="-356.0"/>
      <point x="1436.0" y="-347.0"/>
      <point x="1366.0" y="-208.0" type="curve" smooth="yes"/>
      <point x="944.0" y="628.0" type="line"/>
      <point x="834.0" y="628.0" type="line"/>
    </contour>
    <contour>
      <point x="798.0" y="422.0" type="line"/>
      <point x="978.0" y="422.0" type="line"/>
      <point x="1580.0" y="1536.0" type="line"/>
      <point x="1330.0" y="1536.0" type="line"/>
      <point x="890.0" y="716.0" type="line"/>
      <point x="604.0" y="1268.0" type="line" smooth="yes"/>
      <point x="482.0" y="1502.0"/>
      <point x="406.0" y="1552.0"/>
      <point x="178.0" y="1552.0" type="curve" smooth="yes"/>
      <point x="120.0" y="1552.0" type="line"/>
      <point x="120.0" y="1332.0" type="line"/>
      <point x="178.0" y="1332.0" type="line" smooth="yes"/>
      <point x="318.0" y="1332.0"/>
      <point x="326.0" y="1326.0"/>
      <point x="410.0" y="1166.0" type="curve" smooth="yes"/>
    </contour>
  </outline>
</glyph>
<glyph name="zecyrillic" format="2">
  <advance width="1392.0"/>
  <unicode hex="0437"/>
  <note>
stroke L: ({Filter="OffsetCurve;32;32;1;1;";})
</note>
  <outline>
    <contour>
      <point x="120.0" y="392.0" type="line"/>
      <point x="128.0" y="140.0"/>
      <point x="369.0" y="-32.0"/>
      <point x="696.0" y="-32.0" type="curve" smooth="yes"/>
      <point x="1032.0" y="-32.0"/>
      <point x="1276.0" y="148.0"/>
      <point x="1276.0" y="428.0" type="curve" smooth="yes"/>
      <point x="1276.0" y="620.0"/>
      <point x="1161.0" y="776.0"/>
      <point x="988.0" y="788.0" type="curve"/>
      <point x="988.0" y="804.0" type="line"/>
      <point x="1134.0" y="849.0"/>
      <point x="1244.0" y="955.0"/>
      <point x="1244.0" y="1128.0" type="curve" smooth="yes"/>
      <point x="1244.0" y="1371.0"/>
      <point x="1036.0" y="1556.0"/>
      <point x="712.0" y="1556.0" type="curve" smooth="yes"/>
      <point x="392.0" y="1556.0"/>
      <point x="164.0" y="1380.0"/>
      <point x="156.0" y="1132.0" type="curve"/>
      <point x="404.0" y="1132.0" type="line"/>
      <point x="411.0" y="1259.0"/>
      <point x="544.0" y="1348.0"/>
      <point x="724.0" y="1348.0" type="curve" smooth="yes"/>
      <point x="903.0" y="1348.0"/>
      <point x="1004.0" y="1257.0"/>
      <point x="1004.0" y="1120.0" type="curve" smooth="yes"/>
      <point x="1004.0" y="992.0"/>
      <point x="916.0" y="896.0"/>
      <point x="728.0" y="896.0" type="curve" smooth="yes"/>
      <point x="464.0" y="896.0" type="line"/>
      <point x="464.0" y="684.0" type="line"/>
      <point x="728.0" y="684.0" type="line" smooth="yes"/>
      <point x="916.0" y="684.0"/>
      <point x="1036.0" y="581.0"/>
      <point x="1036.0" y="428.0" type="curve" smooth="yes"/>
      <point x="1036.0" y="253.0"/>
      <point x="881.0" y="180.0"/>
      <point x="692.0" y="180.0" type="curve" smooth="yes"/>
      <point x="507.0" y="180.0"/>
      <point x="383.0" y="253.0"/>
      <point x="372.0" y="392.0" type="curve"/>
    </contour>
  </outline>
</glyph>
<glyph name="uni1DFF" format="2">
  <unicode hex="1DFF"/>
  <guideline x="-238.0" y="-416.0" angle="0.0"/>
  <outline>
    <contour>
      <point x="-346.0" y="-744.0" type="line"/>
      <point x="-182.0" y="-744.0" type="line"/>
      <point x="230.0" y="-96.0" type="line"/>
      <point x="6.0" y="-96.0" type="line"/>
      <point x="-238.0" y="-500.0" type="line"/>
    </contour>
    <contour>
      <point x="-1702.0" y="-748.0" type="line"/>
      <point x="-702.0" y="-480.0" type="line"/>
      <point x="-702.0" y="-376.0" type="line"/>
      <point x="-1078.0" y="-424.0" type="line"/>
      <point x="-1702.0" y="-580.0" type="line"/>
    </contour>
    <contour>
      <point x="-702.0" y="-468.0" type="line"/>
      <point x="-702.0" y="-360.0" type="line"/>
      <point x="-1702.0" y="-96.0" type="line"/>
      <point x="-1702.0" y="-264.0" type="line"/>
      <point x="-1078.0" y="-420.0" type="line"/>
    </contour>
    <contour>
      <point x="-370.0" y="-744.0" type="line"/>
      <point x="-206.0" y="-744.0" type="line"/>
      <point x="-318.0" y="-500.0" type="line"/>
      <point x="-554.0" y="-96.0" type="line"/>
      <point x="-778.0" y="-96.0" type="line"/>
    </contour>
  </outline>
</glyph>
<glyph name="uni1FBE" format="2">
  <advance width="752.0"/>
  <unicode hex="1FBE"/>
  <note>
similar or identical to iotasubnosp
</note>
  <outline>
    <contour>
      <point x="440.0" y="-680.0" type="curve" smooth="yes"/>
      <point x="492.0" y="-680.0"/>
      <point x="524.0" y="-672.0"/>
      <point x="544.0" y="-664.0" type="curve"/>
      <point x="544.0" y="-524.0" type="line"/>
      <point x="532.0" y="-524.0"/>
      <point x="504.0" y="-528.0"/>
      <point x="484.0" y="-528.0" type="curve" smooth="yes"/>
      <point x="444.0" y="-528.0"/>
      <point x="416.0" y="-500.0"/>
      <point x="416.0" y="-420.0" type="curve" smooth="yes"/>
      <point x="416.0" y="-120.0" type="line"/>
      <point x="208.0" y="-120.0" type="line"/>
      <point x="208.0" y="-424.0" type="line" smooth="yes"/>
      <point x="208.0" y="-604.0"/>
      <point x="304.0" y="-680.0"/>
    </contour>
  </outline>
</glyph>
<glyph name="uni1FFD" format="2">
  <advance width="752.0"/>
  <unicode hex="1FFD"/>
  <outline>
    <contour>
      <point x="300.0" y="1728.0" type="line"/>
      <point x="428.0" y="1728.0" type="line"/>
      <point x="744.0" y="2168.0" type="line"/>
      <point x="744.0" y="2196.0" type="line"/>
      <point x="452.0" y="2196.0" type="line"/>
      <point x="300.0" y="1752.0" type="line"/>
    </contour>
  </outline>
</glyph>
<glyph name="bullet" format="2">
  <advance width="1584.0"/>
  <unicode hex="2022"/>
  <guideline x="1104.0" y="816.0" angle="0.0"/>
  <outline>
    <contour>
      <point x="792.0" y="376.0" type="curve" smooth="yes"/>
      <point x="1035.0" y="376.0"/>
      <point x="1232.0" y="573.0"/>
      <point x="1232.0" y="816.0" type="curve" smooth="yes"/>
      <point x="1232.0" y="1059.0"/>
      <point x="1035.0" y="1256.0"/>
      <point x="792.0" y="1256.0" type="curve" smooth="yes"/>
      <point x="549.0" y="1256.0"/>
      <point x="352.0" y="1059.0"/>
      <point x="352.0" y="816.0" type="curve" smooth="yes"/>
      <point x="352.0" y="573.0"/>
      <point x="549.0" y="376.0"/>
    </contour>
  </outline>
</glyph>
<glyph name="trianglebullet" format="2">
  <advance width="1584.0"/>
  <unicode hex="2023"/>
  <guideline x="1104.0" y="816.0" angle="0.0"/>
  <outline>
    <contour>
      <point x="482.0" y="368.0" type="line"/>
      <point x="1222.0" y="816.0" type="line"/>
      <point x="482.0" y="1264.0" type="line"/>
    </contour>
  </outline>
</glyph>
<glyph name="paragraphreversed" format="2">
  <advance width="1688.0"/>
  <unicode hex="204B"/>
  <outline>
    <contour>
      <point x="744.0" y="760.0" type="line"/>
      <point x="860.0" y="760.0" type="line" smooth="yes"/>
      <point x="1296.0" y="760.0"/>
      <point x="1536.0" y="1032.0"/>
      <point x="1536.0" y="1404.0" type="curve" smooth="yes"/>
      <point x="1536.0" y="1772.0"/>
      <point x="1296.0" y="2048.0"/>
      <point x="860.0" y="2048.0" type="curve" smooth="yes"/>
      <point x="248.0" y="2048.0" type="line"/>
      <point x="248.0" y="1828.0" type="line"/>
      <point x="744.0" y="1828.0" type="line"/>
    </contour>
    <contour>
      <point x="248.0" y="0.0" type="line"/>
      <point x="496.0" y="0.0" type="line"/>
      <point x="496.0" y="2048.0" type="line"/>
      <point x="248.0" y="2048.0" type="line"/>
    </contour>
  </outline>
</glyph>
<glyph name="blackleftbullet" format="2">
  <advance width="1664.0"/>
  <unicode hex="204C"/>
  <note>
Based on paragraph. Slightly shorter.
</note>
  <guideline x="1084.0" y="816.0" angle="0.0"/>
  <outline>
    <contour>
      <point x="836.0" y="232.0" type="curve" smooth="yes"/>
      <point x="1448.0" y="232.0" type="line"/>
      <point x="1448.0" y="452.0" type="line"/>
      <point x="952.0" y="452.0" type="line"/>
      <point x="952.0" y="1180.0" type="line"/>
      <point x="1448.0" y="1180.0" type="line"/>
      <point x="1448.0" y="1400.0" type="line"/>
      <point x="836.0" y="1400.0" type="line" smooth="yes"/>
      <point x="442.0" y="1400.0"/>
      <point x="200.0" y="1190.0"/>
      <point x="200.0" y="816.0" type="curve" smooth="yes"/>
      <point x="200.0" y="442.0"/>
      <point x="442.0" y="232.0"/>
    </contour>
    <contour>
      <point x="1200.0" y="232.0" type="line"/>
      <point x="1448.0" y="232.0" type="line"/>
      <point x="1448.0" y="1400.0" type="line"/>
      <point x="1200.0" y="1400.0" type="line"/>
    </contour>
  </outline>
</glyph>
<glyph name="blackrightbullet" format="2">
  <advance width="1664.0"/>
  <unicode hex="204D"/>
  <outline>
    <contour>
      <point x="216.0" y="232.0" type="line"/>
      <point x="828.0" y="232.0" type="line" smooth="yes"/>
      <point x="1222.0" y="232.0"/>
      <point x="1464.0" y="442.0"/>
      <point x="1464.0" y="816.0" type="curve" smooth="yes"/>
      <point x="1464.0" y="1190.0"/>
      <point x="1222.0" y="1400.0"/>
      <point x="828.0" y="1400.0" type="curve" smooth="yes"/>
      <point x="216.0" y="1400.0" type="line"/>
      <point x="216.0" y="1180.0" type="line"/>
      <point x="712.0" y="1180.0" type="line"/>
      <point x="712.0" y="452.0" type="line"/>
      <point x="216.0" y="452.0" type="line"/>
    </contour>
    <contour>
      <point x="216.0" y="232.0" type="line"/>
      <point x="464.0" y="232.0" type="line"/>
      <point x="464.0" y="1400.0" type="line"/>
      <point x="216.0" y="1400.0" type="line"/>
    </contour>
  </outline>
</glyph>
<glyph name="reversedsemicolon" format="2">
  <advance width="788.0"/>
  <unicode hex="204F"/>
  <outline>
    <contour>
      <point x="422.0" y="-500.0" type="curve"/>
      <point x="602.0" y="-500.0" type="line"/>
      <point x="576.0" y="-374.0"/>
      <point x="519.0" y="-104.0"/>
      <point x="490.0" y="168.0" type="curve" smooth="yes"/>
      <point x="478.0" y="280.0" type="line"/>
      <point x="222.0" y="280.0" type="line"/>
      <point x="238.0" y="172.0" type="line" smooth="yes"/>
      <point x="272.0" y="-56.0"/>
      <point x="374.0" y="-364.0"/>
    </contour>
    <contour>
      <point x="366.0" y="1124.0" type="curve" smooth="yes"/>
      <point x="464.0" y="1124.0"/>
      <point x="546.0" y="1206.0"/>
      <point x="546.0" y="1304.0" type="curve" smooth="yes"/>
      <point x="546.0" y="1404.0"/>
      <point x="464.0" y="1484.0"/>
      <point x="366.0" y="1484.0" type="curve" smooth="yes"/>
      <point x="266.0" y="1484.0"/>
      <point x="186.0" y="1404.0"/>
      <point x="186.0" y="1304.0" type="curve" smooth="yes"/>
      <point x="186.0" y="1206.0"/>
      <point x="266.0" y="1124.0"/>
    </contour>
  </outline>
</glyph>
<glyph name="published" format="2">
  <advance width="1888.0"/>
  <unicode hex="2117"/>
  <outline>
    <contour>
      <point x="702.0" y="916.0" type="line"/>
      <point x="864.0" y="916.0" type="line"/>
      <point x="864.0" y="1534.0" type="line"/>
      <point x="1018.0" y="1534.0" type="line" smooth="yes"/>
      <point x="1076.0" y="1534.0"/>
      <point x="1124.0" y="1476.0"/>
      <point x="1124.0" y="1404.0" type="curve" smooth="yes"/>
      <point x="1124.0" y="1330.0"/>
      <point x="1075.0" y="1276.0"/>
      <point x="1014.0" y="1276.0" type="curve" smooth="yes"/>
      <point x="794.0" y="1276.0" type="line"/>
      <point x="794.0" y="1150.0" type="line"/>
      <point x="1030.0" y="1150.0" type="line" smooth="yes"/>
      <point x="1171.0" y="1150.0"/>
      <point x="1288.0" y="1253.0"/>
      <point x="1288.0" y="1404.0" type="curve" smooth="yes"/>
      <point x="1288.0" y="1552.0"/>
      <point x="1176.0" y="1654.0"/>
      <point x="1042.0" y="1654.0" type="curve" smooth="yes"/>
      <point x="702.0" y="1654.0" type="line"/>
    </contour>
    <contour>
      <point x="944.0" y="476.0" type="curve" smooth="yes"/>
      <point x="1386.0" y="476.0"/>
      <point x="1744.0" y="834.0"/>
      <point x="1744.0" y="1276.0" type="curve" smooth="yes"/>
      <point x="1744.0" y="1718.0"/>
      <point x="1386.0" y="2076.0"/>
      <point x="944.0" y="2076.0" type="curve" smooth="yes"/>
      <point x="502.0" y="2076.0"/>
      <point x="144.0" y="1718.0"/>
      <point x="144.0" y="1276.0" type="curve" smooth="yes"/>
      <point x="144.0" y="834.0"/>
      <point x="502.0" y="476.0"/>
    </contour>
    <contour>
      <point x="944.0" y="668.0" type="curve" smooth="yes"/>
      <point x="608.0" y="668.0"/>
      <point x="336.0" y="940.0"/>
      <point x="336.0" y="1276.0" type="curve" smooth="yes"/>
      <point x="336.0" y="1612.0"/>
      <point x="608.0" y="1884.0"/>
      <point x="944.0" y="1884.0" type="curve" smooth="yes"/>
      <point x="1280.0" y="1884.0"/>
      <point x="1552.0" y="1612.0"/>
      <point x="1552.0" y="1276.0" type="curve" smooth="yes"/>
      <point x="1552.0" y="940.0"/>
      <point x="1280.0" y="668.0"/>
    </contour>
  </outline>
</glyph>
<glyph name="servicemark" format="2">
  <advance width="1682.0"/>
  <unicode hex="2120"/>
  <note>
stroke R: 58, 50%
stroke B: x=120/y=86, 50%
</note>
  <guideline x="632.0" y="1992.0" angle="0.0"/>
  <guideline x="630.0" y="1368.0" angle="0.0"/>
  <outline>
    <contour>
      <point x="384.0" y="1306.0" type="curve" smooth="yes"/>
      <point x="558.0" y="1306.0"/>
      <point x="664.0" y="1386.0"/>
      <point x="664.0" y="1522.0" type="curve" smooth="yes"/>
      <point x="664.0" y="1639.0"/>
      <point x="585.0" y="1715.0"/>
      <point x="440.0" y="1740.0" type="curve" smooth="yes"/>
      <point x="358.0" y="1754.0" type="line" smooth="yes"/>
      <point x="280.0" y="1767.0"/>
      <point x="247.0" y="1796.0"/>
      <point x="246.0" y="1848.0" type="curve" smooth="yes"/>
      <point x="245.0" y="1907.0"/>
      <point x="289.0" y="1937.0"/>
      <point x="392.0" y="1938.0" type="curve" smooth="yes"/>
      <point x="499.0" y="1939.0"/>
      <point x="536.0" y="1908.0"/>
      <point x="536.0" y="1832.0" type="curve"/>
      <point x="652.0" y="1832.0" type="line"/>
      <point x="652.0" y="1978.0"/>
      <point x="559.0" y="2055.0"/>
      <point x="392.0" y="2054.0" type="curve" smooth="yes"/>
      <point x="226.0" y="2053.0"/>
      <point x="127.0" y="1975.0"/>
      <point x="130.0" y="1846.0" type="curve" smooth="yes"/>
      <point x="133.0" y="1734.0"/>
      <point x="208.0" y="1662.0"/>
      <point x="338.0" y="1640.0" type="curve" smooth="yes"/>
      <point x="420.0" y="1626.0" type="line" smooth="yes"/>
      <point x="513.0" y="1610.0"/>
      <point x="548.0" y="1577.0"/>
      <point x="548.0" y="1522.0" type="curve" smooth="yes"/>
      <point x="548.0" y="1456.0"/>
      <point x="495.0" y="1422.0"/>
      <point x="384.0" y="1422.0" type="curve" smooth="yes"/>
      <point x="271.0" y="1422.0"/>
      <point x="228.0" y="1457.0"/>
      <point x="228.0" y="1536.0" type="curve"/>
      <point x="112.0" y="1536.0" type="line"/>
      <point x="112.0" y="1387.0"/>
      <point x="210.0" y="1306.0"/>
    </contour>
    <contour>
      <point x="786.0" y="1312.0" type="line"/>
      <point x="914.0" y="1312.0" type="line"/>
      <point x="914.0" y="2048.0" type="line"/>
      <point x="786.0" y="2048.0" type="line"/>
    </contour>
    <contour>
      <point x="1136.0" y="1312.0" type="line"/>
      <point x="1204.0" y="1312.0" type="line"/>
      <point x="1530.0" y="2048.0" type="line"/>
      <point x="1398.0" y="2048.0" type="line"/>
      <point x="1170.0" y="1508.0" type="line"/>
      <point x="942.0" y="2048.0" type="line"/>
      <point x="810.0" y="2048.0" type="line"/>
    </contour>
    <contour>
      <point x="1426.0" y="1312.0" type="line"/>
      <point x="1554.0" y="1312.0" type="line"/>
      <point x="1554.0" y="2048.0" type="line"/>
      <point x="1426.0" y="2048.0" type="line"/>
    </contour>
  </outline>
</glyph>
<glyph name="tel" format="2">
  <advance width="1952.0"/>
  <unicode hex="2121"/>
  <outline>
    <contour>
      <point x="816.0" y="1312.0" type="line"/>
      <point x="1264.0" y="1312.0" type="line"/>
      <point x="1264.0" y="1424.0" type="line"/>
      <point x="944.0" y="1424.0" type="line"/>
      <point x="944.0" y="1936.0" type="line"/>
      <point x="1264.0" y="1936.0" type="line"/>
      <point x="1264.0" y="2048.0" type="line"/>
      <point x="816.0" y="2048.0" type="line"/>
    </contour>
    <contour>
      <point x="336.0" y="1312.0" type="line"/>
      <point x="464.0" y="1312.0" type="line"/>
      <point x="464.0" y="1984.0" type="line"/>
      <point x="336.0" y="1984.0" type="line"/>
    </contour>
    <contour>
      <point x="112.0" y="1936.0" type="line"/>
      <point x="688.0" y="1936.0" type="line"/>
      <point x="688.0" y="2048.0" type="line"/>
      <point x="112.0" y="2048.0" type="line"/>
    </contour>
    <contour>
      <point x="892.0" y="1632.0" type="line"/>
      <point x="1200.0" y="1632.0" type="line"/>
      <point x="1200.0" y="1744.0" type="line"/>
      <point x="892.0" y="1744.0" type="line"/>
    </contour>
    <contour>
      <point x="1392.0" y="1312.0" type="line"/>
      <point x="1840.0" y="1312.0" type="line"/>
      <point x="1840.0" y="1424.0" type="line"/>
      <point x="1520.0" y="1424.0" type="line"/>
      <point x="1520.0" y="2048.0" type="line"/>
      <point x="1392.0" y="2048.0" type="line"/>
    </contour>
  </outline>
</glyph>
<glyph name="trademark" format="2">
  <advance width="1712.0"/>
  <unicode hex="2122"/>
  <outline>
    <contour>
      <point x="1166.0" y="1312.0" type="line"/>
      <point x="1234.0" y="1312.0" type="line"/>
      <point x="1560.0" y="2048.0" type="line"/>
      <point x="1428.0" y="2048.0" type="line"/>
      <point x="1200.0" y="1508.0" type="line"/>
      <point x="972.0" y="2048.0" type="line"/>
      <point x="840.0" y="2048.0" type="line"/>
    </contour>
    <contour>
      <point x="816.0" y="1312.0" type="line"/>
      <point x="944.0" y="1312.0" type="line"/>
      <point x="944.0" y="2048.0" type="line"/>
      <point x="816.0" y="2048.0" type="line"/>
    </contour>
    <contour>
      <point x="1456.0" y="1312.0" type="line"/>
      <point x="1584.0" y="1312.0" type="line"/>
      <point x="1584.0" y="2048.0" type="line"/>
      <point x="1456.0" y="2048.0" type="line"/>
    </contour>
    <contour>
      <point x="336.0" y="1312.0" type="line"/>
      <point x="464.0" y="1312.0" type="line"/>
      <point x="464.0" y="1984.0" type="line"/>
      <point x="336.0" y="1984.0" type="line"/>
    </contour>
    <contour>
      <point x="112.0" y="1936.0" type="line"/>
      <point x="688.0" y="1936.0" type="line"/>
      <point x="688.0" y="2048.0" type="line"/>
      <point x="112.0" y="2048.0" type="line"/>
    </contour>
  </outline>
</glyph>
<glyph name="uni213B" format="2">
  <advance width="2064.0"/>
  <unicode hex="213B"/>
  <outline>
    <contour>
      <point x="128.0" y="1312.0" type="line"/>
      <point x="256.0" y="1312.0" type="line"/>
      <point x="256.0" y="1608.0" type="line"/>
      <point x="512.0" y="1608.0" type="line"/>
      <point x="512.0" y="1720.0" type="line"/>
      <point x="256.0" y="1720.0" type="line"/>
      <point x="256.0" y="1936.0" type="line"/>
      <point x="552.0" y="1936.0" type="line"/>
      <point x="552.0" y="2048.0" type="line"/>
      <point x="128.0" y="2048.0" type="line"/>
    </contour>
    <contour>
      <point x="546.0" y="1312.0" type="line"/>
      <point x="678.0" y="1312.0" type="line"/>
      <point x="902.0" y="1896.0" type="line"/>
      <point x="1130.0" y="1312.0" type="line"/>
      <point x="1258.0" y="1312.0" type="line"/>
      <point x="962.0" y="2048.0" type="line"/>
      <point x="846.0" y="2048.0" type="line"/>
    </contour>
    <contour>
      <point x="694.0" y="1484.0" type="line"/>
      <point x="1110.0" y="1484.0" type="line"/>
      <point x="1110.0" y="1588.0" type="line"/>
      <point x="694.0" y="1588.0" type="line"/>
    </contour>
    <contour>
      <point x="1306.0" y="1312.0" type="line"/>
      <point x="1446.0" y="1312.0" type="line"/>
      <point x="1948.0" y="2048.0" type="line"/>
      <point x="1806.0" y="2048.0" type="line"/>
    </contour>
    <contour>
      <point x="1812.0" y="1312.0" type="line"/>
      <point x="1952.0" y="1312.0" type="line"/>
      <point x="1452.0" y="2048.0" type="line"/>
      <point x="1310.0" y="2048.0" type="line"/>
    </contour>
  </outline>
</glyph>
<glyph name="leftArrow" format="2">
  <advance width="2688.0"/>
  <unicode hex="2190"/>
  <note>
stroke (offset curve):
  L head: 32, 0%
  L stem: 32, 50%
  R head: 108, 0%
  R stem: 110, 50%
  B head: 200, 0%
  B stem: 208, 50%
</note>
  <guideline x="178.0" y="896.0" angle="0.0"/>
  <guideline x="278.0" y="896.0" angle="45.0"/>
  <guideline x="278.0" y="896.0" angle="315.0"/>
  <outline>
    <contour>
      <point x="1174.0" y="0.0" type="line"/>
      <point x="1328.0" y="154.0" type="line"/>
      <point x="694.0" y="786.0" type="line"/>
      <point x="2336.0" y="786.0" type="line"/>
      <point x="2336.0" y="1006.0" type="line"/>
      <point x="694.0" y="1006.0" type="line"/>
      <point x="1328.0" y="1640.0" type="line"/>
      <point x="1174.0" y="1792.0" type="line"/>
      <point x="278.0" y="896.0" type="line"/>
    </contour>
  </outline>
</glyph>
<glyph name="upArrow" format="2">
  <advance width="2688.0"/>
  <unicode hex="2191"/>
  <outline>
    <contour>
      <point x="1234.0" y="0.0" type="line"/>
      <point x="1454.0" y="0.0" type="line"/>
      <point x="1454.0" y="1644.0" type="line"/>
      <point x="2088.0" y="1010.0" type="line"/>
      <point x="2240.0" y="1164.0" type="line"/>
      <point x="1344.0" y="2060.0" type="line"/>
      <point x="446.0" y="1164.0" type="line"/>
      <point x="602.0" y="1010.0" type="line"/>
      <point x="1234.0" y="1644.0" type="line"/>
    </contour>
  </outline>
</glyph>
<glyph name="rightArrow" format="2">
  <advance width="2688.0"/>
  <unicode hex="2192"/>
  <outline>
    <contour>
      <point x="1514.0" y="0.0" type="line"/>
      <point x="2410.0" y="896.0" type="line"/>
      <point x="1514.0" y="1792.0" type="line"/>
      <point x="1360.0" y="1638.0" type="line"/>
      <point x="1994.0" y="1006.0" type="line"/>
      <point x="352.0" y="1006.0" type="line"/>
      <point x="352.0" y="786.0" type="line"/>
      <point x="1994.0" y="786.0" type="line"/>
      <point x="1360.0" y="152.0" type="line"/>
    </contour>
  </outline>
</glyph>
<glyph name="leftRightArrow" format="2">
  <advance width="3776.0"/>
  <unicode hex="2194"/>
  <outline>
    <contour>
      <point x="1174.0" y="0.0" type="line"/>
      <point x="1328.0" y="154.0" type="line"/>
      <point x="694.0" y="786.0" type="line"/>
      <point x="3082.0" y="786.0" type="line"/>
      <point x="2448.0" y="154.0" type="line"/>
      <point x="2602.0" y="0.0" type="line"/>
      <point x="3498.0" y="896.0" type="line"/>
      <point x="2602.0" y="1792.0" type="line"/>
      <point x="2448.0" y="1640.0" type="line"/>
      <point x="3082.0" y="1006.0" type="line"/>
      <point x="694.0" y="1006.0" type="line"/>
      <point x="1328.0" y="1640.0" type="line"/>
      <point x="1174.0" y="1792.0" type="line"/>
      <point x="278.0" y="896.0" type="line"/>
    </contour>
  </outline>
</glyph>
<glyph name="upDownArrow" format="2">
  <advance width="2688.0"/>
  <unicode hex="2195"/>
  <note>
vertical align with hyphen
</note>
  <guideline x="1102.0" y="878.0" angle="0.0"/>
  <outline>
    <contour>
      <point x="1344.0" y="-612.0" type="line"/>
      <point x="2240.0" y="284.0" type="line"/>
      <point x="2088.0" y="438.0" type="line"/>
      <point x="1454.0" y="-196.0" type="line"/>
      <point x="1454.0" y="1952.0" type="line"/>
      <point x="2088.0" y="1318.0" type="line"/>
      <point x="2240.0" y="1472.0" type="line"/>
      <point x="1344.0" y="2368.0" type="line"/>
      <point x="448.0" y="1472.0" type="line"/>
      <point x="602.0" y="1318.0" type="line"/>
      <point x="1234.0" y="1952.0" type="line"/>
      <point x="1234.0" y="-196.0" type="line"/>
      <point x="602.0" y="438.0" type="line"/>
      <point x="448.0" y="284.0" type="line"/>
    </contour>
  </outline>
</glyph>
<glyph name="northWestArrow" format="2">
  <advance width="2688.0"/>
  <unicode hex="2196"/>
  <outline>
    <contour>
      <point x="598.0" y="780.0" type="line"/>
      <point x="816.0" y="780.0" type="line"/>
      <point x="814.0" y="1676.0" type="line"/>
      <point x="1974.0" y="514.0" type="line"/>
      <point x="2130.0" y="670.0" type="line"/>
      <point x="970.0" y="1832.0" type="line"/>
      <point x="1866.0" y="1832.0" type="line"/>
      <point x="1864.0" y="2048.0" type="line"/>
      <point x="598.0" y="2048.0" type="line"/>
    </contour>
  </outline>
</glyph>
<glyph name="northEastArrow" format="2">
  <advance width="2688.0"/>
  <unicode hex="2197"/>
  <outline>
    <contour>
      <point x="714.0" y="514.0" type="line"/>
      <point x="1874.0" y="1676.0" type="line"/>
      <point x="1872.0" y="780.0" type="line"/>
      <point x="2090.0" y="780.0" type="line"/>
      <point x="2090.0" y="2048.0" type="line"/>
      <point x="824.0" y="2048.0" type="line"/>
      <point x="822.0" y="1832.0" type="line"/>
      <point x="1718.0" y="1832.0" type="line"/>
      <point x="558.0" y="670.0" type="line"/>
    </contour>
  </outline>
</glyph>
<glyph name="leftHookArrow" format="2">
  <advance width="3218.0"/>
  <unicode hex="21A9"/>
  <note>
stroke offset curve:
L head: 32, 0%
L stem: 32, 50%
R stem: 110, 50%
R head: 108, 0%
B head: 200, 0%
B stem: 208, 50%
</note>
  <guideline x="2062.0" y="896.0" angle="0.0"/>
  <guideline x="1224.0" y="2002.0" angle="0.0"/>
  <outline>
    <contour>
      <point x="512.0" y="786.0" type="line"/>
      <point x="2286.0" y="786.0" type="line" smooth="yes"/>
      <point x="2651.0" y="786.0"/>
      <point x="2948.0" y="1084.0"/>
      <point x="2948.0" y="1450.0" type="curve" smooth="yes"/>
      <point x="2948.0" y="1815.0"/>
      <point x="2651.0" y="2112.0"/>
      <point x="2286.0" y="2112.0" type="curve" smooth="yes"/>
      <point x="2184.0" y="2112.0" type="line"/>
      <point x="2184.0" y="1892.0" type="line"/>
      <point x="2286.0" y="1892.0" type="line" smooth="yes"/>
      <point x="2529.0" y="1892.0"/>
      <point x="2728.0" y="1693.0"/>
      <point x="2728.0" y="1450.0" type="curve" smooth="yes"/>
      <point x="2728.0" y="1205.0"/>
      <point x="2530.0" y="1006.0"/>
      <point x="2286.0" y="1006.0" type="curve" smooth="yes"/>
      <point x="512.0" y="1006.0" type="line"/>
    </contour>
    <contour>
      <point x="1174.0" y="0.0" type="line"/>
      <point x="1327.0" y="153.0" type="line"/>
      <point x="583.0" y="896.0" type="line"/>
      <point x="1327.0" y="1639.0" type="line"/>
      <point x="1174.0" y="1792.0" type="line"/>
      <point x="278.0" y="896.0" type="line"/>
    </contour>
  </outline>
</glyph>
<glyph name="rightHookArrow" format="2">
  <advance width="3218.0"/>
  <unicode hex="21AA"/>
  <note>
Mirror copy of leftHookArrow
</note>
  <outline>
    <contour>
      <point x="932.0" y="786.0" type="curve" smooth="yes"/>
      <point x="2706.0" y="786.0" type="line"/>
      <point x="2706.0" y="1006.0" type="line"/>
      <point x="932.0" y="1006.0" type="line" smooth="yes"/>
      <point x="688.0" y="1006.0"/>
      <point x="490.0" y="1205.0"/>
      <point x="490.0" y="1450.0" type="curve" smooth="yes"/>
      <point x="490.0" y="1693.0"/>
      <point x="689.0" y="1892.0"/>
      <point x="932.0" y="1892.0" type="curve" smooth="yes"/>
      <point x="1034.0" y="1892.0" type="line"/>
      <point x="1034.0" y="2112.0" type="line"/>
      <point x="932.0" y="2112.0" type="line" smooth="yes"/>
      <point x="567.0" y="2112.0"/>
      <point x="270.0" y="1815.0"/>
      <point x="270.0" y="1450.0" type="curve" smooth="yes"/>
      <point x="270.0" y="1084.0"/>
      <point x="567.0" y="786.0"/>
    </contour>
    <contour>
      <point x="2044.0" y="0.0" type="line"/>
      <point x="2940.0" y="896.0" type="line"/>
      <point x="2044.0" y="1792.0" type="line"/>
      <point x="1892.0" y="1640.0" type="line"/>
      <point x="2636.0" y="896.0" type="line"/>
      <point x="1892.0" y="154.0" type="line"/>
    </contour>
  </outline>
</glyph>
<glyph name="upTipLeftArrow" format="2">
  <advance width="2774.0"/>
  <unicode hex="21B0"/>
  <note>
Mirror copy of carriagereturn
</note>
  <guideline x="876.0" y="1518.0" angle="0.0"/>
  <outline>
    <contour>
      <point x="872.0" y="924.0" type="line"/>
      <point x="872.0" y="2112.0" type="line"/>
      <point x="278.0" y="1518.0" type="line"/>
    </contour>
    <contour>
      <point x="690.0" y="1410.0" type="line"/>
      <point x="2488.0" y="1410.0" type="line"/>
      <point x="2488.0" y="1626.0" type="line"/>
      <point x="690.0" y="1626.0" type="line"/>
    </contour>
    <contour>
      <point x="2278.0" y="0.0" type="line"/>
      <point x="2494.0" y="0.0" type="line"/>
      <point x="2494.0" y="1626.0" type="line"/>
      <point x="2278.0" y="1626.0" type="line"/>
    </contour>
  </outline>
</glyph>
<glyph name="upTipRightArrow" format="2">
  <advance width="2774.0"/>
  <unicode hex="21B1"/>
  <note>
Mirror copy of carriagereturn
</note>
  <outline>
    <contour>
      <point x="1902.0" y="924.0" type="line"/>
      <point x="2496.0" y="1518.0" type="line"/>
      <point x="1902.0" y="2112.0" type="line"/>
    </contour>
    <contour>
      <point x="280.0" y="0.0" type="line"/>
      <point x="496.0" y="0.0" type="line"/>
      <point x="496.0" y="1626.0" type="line"/>
      <point x="280.0" y="1626.0" type="line"/>
    </contour>
    <contour>
      <point x="286.0" y="1410.0" type="line"/>
      <point x="2084.0" y="1410.0" type="line"/>
      <point x="2084.0" y="1626.0" type="line"/>
      <point x="286.0" y="1626.0" type="line"/>
    </contour>
  </outline>
</glyph>
<glyph name="rightCornerDownArrow" format="2">
  <advance width="2336.0"/>
  <unicode hex="21B4"/>
  <note>
Mirror copy of carriagereturn
</note>
  <outline>
    <contour>
      <point x="1464.0" y="-32.0" type="line"/>
      <point x="2058.0" y="562.0" type="line"/>
      <point x="870.0" y="562.0" type="line"/>
    </contour>
    <contour>
      <point x="1356.0" y="380.0" type="line"/>
      <point x="1572.0" y="380.0" type="line"/>
      <point x="1572.0" y="2044.0" type="line"/>
      <point x="1354.0" y="2044.0" type="line"/>
    </contour>
    <contour>
      <point x="280.0" y="1834.0" type="line"/>
      <point x="1572.0" y="1834.0" type="line"/>
      <point x="1572.0" y="2050.0" type="line"/>
      <point x="280.0" y="2050.0" type="line"/>
    </contour>
  </outline>
</glyph>
<glyph name="anticlockwiseOpenCircleArrow" format="2">
  <advance width="2688.0"/>
  <unicode hex="21BA"/>
  <guideline x="1318.0" y="1938.0" angle="0.0"/>
  <outline>
    <contour>
      <point x="1344.0" y="1828.0" type="line"/>
      <point x="1789.0" y="1828.0"/>
      <point x="2147.0" y="1469.0"/>
      <point x="2148.0" y="1024.0" type="curve" smooth="yes"/>
      <point x="2149.0" y="579.0"/>
      <point x="1789.0" y="220.0"/>
      <point x="1344.0" y="220.0" type="curve" smooth="yes"/>
      <point x="900.0" y="220.0"/>
      <point x="539.0" y="580.0"/>
      <point x="540.0" y="1024.0" type="curve"/>
      <point x="320.0" y="1024.0" type="line"/>
      <point x="319.0" y="458.0"/>
      <point x="779.0" y="0.0"/>
      <point x="1344.0" y="0.0" type="curve" smooth="yes"/>
      <point x="1911.0" y="0.0"/>
      <point x="2369.0" y="458.0"/>
      <point x="2368.0" y="1024.0" type="curve" smooth="yes"/>
      <point x="2367.0" y="1590.0"/>
      <point x="1911.0" y="2048.0"/>
      <point x="1344.0" y="2048.0" type="curve"/>
    </contour>
    <contour>
      <point x="1408.0" y="1324.0" type="line"/>
      <point x="1408.0" y="2512.0" type="line"/>
      <point x="814.0" y="1918.0" type="line"/>
    </contour>
  </outline>
</glyph>
<glyph name="clockwiseOpenCircleArrow" format="2">
  <advance width="2688.0"/>
  <unicode hex="21BB"/>
  <outline>
    <contour>
      <point x="1344.0" y="0.0" type="curve" smooth="yes"/>
      <point x="1909.0" y="0.0"/>
      <point x="2369.0" y="458.0"/>
      <point x="2368.0" y="1024.0" type="curve"/>
      <point x="2148.0" y="1024.0" type="line"/>
      <point x="2149.0" y="580.0"/>
      <point x="1788.0" y="220.0"/>
      <point x="1344.0" y="220.0" type="curve" smooth="yes"/>
      <point x="899.0" y="220.0"/>
      <point x="539.0" y="579.0"/>
      <point x="540.0" y="1024.0" type="curve" smooth="yes"/>
      <point x="541.0" y="1469.0"/>
      <point x="899.0" y="1828.0"/>
      <point x="1344.0" y="1828.0" type="curve"/>
      <point x="1344.0" y="2048.0" type="line"/>
      <point x="777.0" y="2048.0"/>
      <point x="321.0" y="1590.0"/>
      <point x="320.0" y="1024.0" type="curve" smooth="yes"/>
      <point x="319.0" y="458.0"/>
      <point x="777.0" y="0.0"/>
    </contour>
    <contour>
      <point x="1280.0" y="1324.0" type="line"/>
      <point x="1874.0" y="1918.0" type="line"/>
      <point x="1280.0" y="2512.0" type="line"/>
    </contour>
  </outline>
</glyph>
<glyph name="pageup" format="2">
  <advance width="1700.0"/>
  <unicode hex="21DE"/>
  <outline>
    <contour>
      <point x="256.0" y="1536.0" type="line"/>
      <point x="1444.0" y="1536.0" type="line"/>
      <point x="850.0" y="2130.0" type="line"/>
    </contour>
    <contour>
      <point x="398.0" y="510.0" type="line"/>
      <point x="1302.0" y="510.0" type="line"/>
      <point x="1302.0" y="710.0" type="line"/>
      <point x="398.0" y="710.0" type="line"/>
    </contour>
    <contour>
      <point x="742.0" y="0.0" type="line"/>
      <point x="958.0" y="0.0" type="line"/>
      <point x="958.0" y="1718.0" type="line"/>
      <point x="742.0" y="1718.0" type="line"/>
    </contour>
    <contour>
      <point x="398.0" y="952.0" type="line"/>
      <point x="1302.0" y="952.0" type="line"/>
      <point x="1302.0" y="1152.0" type="line"/>
      <point x="398.0" y="1152.0" type="line"/>
    </contour>
  </outline>
</glyph>
<glyph name="pagedown" format="2">
  <advance width="1700.0"/>
  <unicode hex="21DF"/>
  <outline>
    <contour>
      <point x="850.0" y="-62.0" type="line"/>
      <point x="1444.0" y="532.0" type="line"/>
      <point x="256.0" y="532.0" type="line"/>
    </contour>
    <contour>
      <point x="398.0" y="916.0" type="line"/>
      <point x="1302.0" y="916.0" type="line"/>
      <point x="1302.0" y="1116.0" type="line"/>
      <point x="398.0" y="1116.0" type="line"/>
    </contour>
    <contour>
      <point x="742.0" y="350.0" type="line"/>
      <point x="958.0" y="350.0" type="line"/>
      <point x="958.0" y="2068.0" type="line"/>
      <point x="742.0" y="2068.0" type="line"/>
    </contour>
    <contour>
      <point x="398.0" y="1358.0" type="line"/>
      <point x="1302.0" y="1358.0" type="line"/>
      <point x="1302.0" y="1558.0" type="line"/>
      <point x="398.0" y="1558.0" type="line"/>
    </contour>
  </outline>
</glyph>
<glyph name="arrowtableft" format="2">
  <advance width="2848.0"/>
  <unicode hex="21E4"/>
  <outline>
    <contour>
      <point x="1268.0" y="430.0" type="line"/>
      <point x="1268.0" y="1618.0" type="line"/>
      <point x="674.0" y="1024.0" type="line"/>
    </contour>
    <contour>
      <point x="256.0" y="432.0" type="line"/>
      <point x="472.0" y="432.0" type="line"/>
      <point x="472.0" y="1616.0" type="line"/>
      <point x="256.0" y="1616.0" type="line"/>
    </contour>
    <contour>
      <point x="1086.0" y="916.0" type="line"/>
      <point x="2592.0" y="916.0" type="line"/>
      <point x="2592.0" y="1132.0" type="line"/>
      <point x="1086.0" y="1132.0" type="line"/>
    </contour>
  </outline>
</glyph>
<glyph name="arrowtabright" format="2">
  <advance width="2848.0"/>
  <unicode hex="21E5"/>
  <note>
Mirror copy of arrowtableft
</note>
  <outline>
    <contour>
      <point x="1580.0" y="430.0" type="line"/>
      <point x="2174.0" y="1024.0" type="line"/>
      <point x="1580.0" y="1618.0" type="line"/>
    </contour>
    <contour>
      <point x="256.0" y="916.0" type="line"/>
      <point x="1762.0" y="916.0" type="line"/>
      <point x="1762.0" y="1132.0" type="line"/>
      <point x="256.0" y="1132.0" type="line"/>
    </contour>
    <contour>
      <point x="2376.0" y="432.0" type="line"/>
      <point x="2592.0" y="432.0" type="line"/>
      <point x="2592.0" y="1616.0" type="line"/>
      <point x="2376.0" y="1616.0" type="line"/>
    </contour>
  </outline>
</glyph>
<glyph name="upWhiteArrow" format="2">
  <advance width="2880.0"/>
  <unicode hex="21E7"/>
  <note>
based of off upBlackArrow
stroke:
L: 32,32,100%,keepCom.
R: 100,90,100%,keepCom.
B: 208,150,100%,keepCom.
</note>
  <outline>
    <contour>
      <point x="256.0" y="1024.0" type="line"/>
      <point x="864.0" y="1024.0" type="line"/>
      <point x="864.0" y="0.0" type="line"/>
      <point x="2016.0" y="0.0" type="line"/>
      <point x="2016.0" y="1024.0" type="line"/>
      <point x="2624.0" y="1024.0" type="line"/>
      <point x="1440.0" y="2208.0" type="line"/>
    </contour>
    <contour>
      <point x="705.0" y="1204.0" type="line"/>
      <point x="1440.0" y="1939.0" type="line"/>
      <point x="2175.0" y="1204.0" type="line"/>
      <point x="1816.0" y="1204.0" type="line"/>
      <point x="1816.0" y="180.0" type="line"/>
      <point x="1064.0" y="180.0" type="line"/>
      <point x="1064.0" y="1204.0" type="line"/>
    </contour>
  </outline>
</glyph>
<glyph name="capslock" format="2">
  <advance width="2880.0"/>
  <unicode hex="21EA"/>
  <note>
Based on upWhiteArrow
</note>
  <outline>
    <contour>
      <point x="864.0" y="420.0" type="line"/>
      <point x="2016.0" y="420.0" type="line"/>
      <point x="2016.0" y="1024.0" type="line"/>
      <point x="2624.0" y="1024.0" type="line"/>
      <point x="1440.0" y="2208.0" type="line"/>
      <point x="256.0" y="1024.0" type="line"/>
      <point x="864.0" y="1024.0" type="line"/>
    </contour>
    <contour>
      <point x="864.0" y="-428.0" type="line"/>
      <point x="2016.0" y="-428.0" type="line"/>
      <point x="2016.0" y="180.0" type="line"/>
      <point x="864.0" y="180.0" type="line"/>
    </contour>
    <contour>
      <point x="1064.0" y="-248.0" type="line"/>
      <point x="1064.0" y="0.0" type="line"/>
      <point x="1816.0" y="0.0" type="line"/>
      <point x="1816.0" y="-248.0" type="line"/>
    </contour>
    <contour>
      <point x="1064.0" y="600.0" type="line"/>
      <point x="1064.0" y="1204.0" type="line"/>
      <point x="705.0" y="1204.0" type="line"/>
      <point x="1440.0" y="1939.0" type="line"/>
      <point x="2175.0" y="1204.0" type="line"/>
      <point x="1816.0" y="1204.0" type="line"/>
      <point x="1816.0" y="600.0" type="line"/>
    </contour>
  </outline>
</glyph>
<glyph name="approxequal" format="2">
  <advance width="1856.0"/>
  <unicode hex="2248"/>
  <guideline x="268.0" y="800.0" angle="0.0"/>
  <outline>
    <contour>
      <point x="232.0" y="900.0" type="curve"/>
      <point x="448.0" y="900.0" type="line"/>
      <point x="444.0" y="1076.0"/>
      <point x="524.0" y="1144.0"/>
      <point x="632.0" y="1144.0" type="curve" smooth="yes"/>
      <point x="704.0" y="1144.0"/>
      <point x="752.0" y="1112.0"/>
      <point x="848.0" y="1028.0" type="curve" smooth="yes"/>
      <point x="995.0" y="899.0"/>
      <point x="1092.0" y="844.0"/>
      <point x="1228.0" y="844.0" type="curve" smooth="yes"/>
      <point x="1432.0" y="844.0"/>
      <point x="1632.0" y="972.0"/>
      <point x="1624.0" y="1304.0" type="curve"/>
      <point x="1408.0" y="1304.0" type="line"/>
      <point x="1412.0" y="1144.0"/>
      <point x="1340.0" y="1060.0"/>
      <point x="1224.0" y="1060.0" type="curve" smooth="yes"/>
      <point x="1152.0" y="1060.0"/>
      <point x="1108.0" y="1092.0"/>
      <point x="1008.0" y="1176.0" type="curve" smooth="yes"/>
      <point x="860.0" y="1300.0"/>
      <point x="764.0" y="1360.0"/>
      <point x="628.0" y="1360.0" type="curve" smooth="yes"/>
      <point x="424.0" y="1360.0"/>
      <point x="228.0" y="1232.0"/>
    </contour>
    <contour>
      <point x="232.0" y="296.0" type="curve"/>
      <point x="448.0" y="296.0" type="line"/>
      <point x="444.0" y="472.0"/>
      <point x="524.0" y="540.0"/>
      <point x="632.0" y="540.0" type="curve" smooth="yes"/>
      <point x="704.0" y="540.0"/>
      <point x="752.0" y="508.0"/>
      <point x="848.0" y="424.0" type="curve" smooth="yes"/>
      <point x="995.0" y="295.0"/>
      <point x="1092.0" y="240.0"/>
      <point x="1228.0" y="240.0" type="curve" smooth="yes"/>
      <point x="1432.0" y="240.0"/>
      <point x="1632.0" y="368.0"/>
      <point x="1624.0" y="700.0" type="curve"/>
      <point x="1408.0" y="700.0" type="line"/>
      <point x="1412.0" y="540.0"/>
      <point x="1340.0" y="456.0"/>
      <point x="1224.0" y="456.0" type="curve" smooth="yes"/>
      <point x="1152.0" y="456.0"/>
      <point x="1108.0" y="488.0"/>
      <point x="1008.0" y="572.0" type="curve" smooth="yes"/>
      <point x="860.0" y="696.0"/>
      <point x="764.0" y="756.0"/>
      <point x="628.0" y="756.0" type="curve" smooth="yes"/>
      <point x="424.0" y="756.0"/>
      <point x="228.0" y="628.0"/>
    </contour>
  </outline>
</glyph>
<glyph name="notequal" format="2">
  <advance width="1856.0"/>
  <unicode hex="2260"/>
  <guideline x="268.0" y="800.0" angle="0.0"/>
  <outline>
    <contour>
      <point x="1112.0" y="1536.0" type="line"/>
      <point x="520.0" y="64.0" type="line"/>
      <point x="744.0" y="64.0" type="line"/>
      <point x="1336.0" y="1536.0" type="line"/>
    </contour>
    <component base="equal"/>
  </outline>
</glyph>
<glyph name="projective" format="2">
  <advance width="2240.0"/>
  <unicode hex="2305"/>
  <note>
Based on control
</note>
  <guideline x="1936.0" y="744.0" angle="90.0"/>
  <guideline x="304.0" y="744.0" angle="90.0"/>
  <outline>
    <contour>
      <point x="304.0" y="1828.0" type="line"/>
      <point x="1936.0" y="1828.0" type="line"/>
      <point x="1936.0" y="2048.0" type="line"/>
      <point x="304.0" y="2048.0" type="line"/>
    </contour>
    <component base="control" yOffset="-512.0"/>
  </outline>
</glyph>
<glyph name="placeofinterestsign" format="2">
  <advance width="2820.0"/>
  <unicode hex="2318"/>
  <outline>
    <contour>
      <point x="774.0" y="-46.0" type="curve"/>
      <point x="1014.0" y="-46.0"/>
      <point x="1209.0" y="149.0"/>
      <point x="1210.0" y="388.0" type="curve"/>
      <point x="1210.0" y="620.0" type="line"/>
      <point x="1612.0" y="620.0" type="line"/>
      <point x="1612.0" y="388.0" type="line"/>
      <point x="1611.0" y="149.0"/>
      <point x="1806.0" y="-46.0"/>
      <point x="2046.0" y="-46.0" type="curve"/>
      <point x="2285.0" y="-46.0"/>
      <point x="2480.0" y="149.0"/>
      <point x="2480.0" y="388.0" type="curve" smooth="yes"/>
      <point x="2480.0" y="628.0"/>
      <point x="2285.0" y="823.0"/>
      <point x="2046.0" y="824.0" type="curve"/>
      <point x="1816.0" y="824.0" type="line"/>
      <point x="1816.0" y="1226.0" type="line"/>
      <point x="2046.0" y="1226.0" type="line"/>
      <point x="2285.0" y="1225.0"/>
      <point x="2480.0" y="1420.0"/>
      <point x="2480.0" y="1660.0" type="curve" smooth="yes"/>
      <point x="2480.0" y="1899.0"/>
      <point x="2285.0" y="2094.0"/>
      <point x="2046.0" y="2094.0" type="curve"/>
      <point x="1806.0" y="2094.0"/>
      <point x="1611.0" y="1899.0"/>
      <point x="1612.0" y="1660.0" type="curve"/>
      <point x="1612.0" y="1430.0" type="line"/>
      <point x="1210.0" y="1430.0" type="line"/>
      <point x="1210.0" y="1660.0" type="line"/>
      <point x="1209.0" y="1899.0"/>
      <point x="1014.0" y="2094.0"/>
      <point x="774.0" y="2094.0" type="curve"/>
      <point x="535.0" y="2094.0"/>
      <point x="340.0" y="1899.0"/>
      <point x="340.0" y="1660.0" type="curve" smooth="yes"/>
      <point x="340.0" y="1420.0"/>
      <point x="535.0" y="1225.0"/>
      <point x="774.0" y="1226.0" type="curve"/>
      <point x="1006.0" y="1226.0" type="line"/>
      <point x="1006.0" y="824.0" type="line"/>
      <point x="774.0" y="824.0" type="line"/>
      <point x="535.0" y="823.0"/>
      <point x="340.0" y="628.0"/>
      <point x="340.0" y="388.0" type="curve" smooth="yes"/>
      <point x="340.0" y="149.0"/>
      <point x="535.0" y="-46.0"/>
    </contour>
    <contour>
      <point x="774.0" y="158.0" type="curve"/>
      <point x="647.0" y="158.0"/>
      <point x="544.0" y="261.0"/>
      <point x="544.0" y="388.0" type="curve" smooth="yes"/>
      <point x="544.0" y="516.0"/>
      <point x="647.0" y="619.0"/>
      <point x="774.0" y="620.0" type="curve"/>
      <point x="1006.0" y="620.0" type="line"/>
      <point x="1006.0" y="388.0" type="line"/>
      <point x="1005.0" y="261.0"/>
      <point x="902.0" y="158.0"/>
    </contour>
    <contour>
      <point x="774.0" y="1430.0" type="line"/>
      <point x="647.0" y="1429.0"/>
      <point x="544.0" y="1532.0"/>
      <point x="544.0" y="1660.0" type="curve" smooth="yes"/>
      <point x="544.0" y="1787.0"/>
      <point x="647.0" y="1890.0"/>
      <point x="774.0" y="1890.0" type="curve"/>
      <point x="902.0" y="1890.0"/>
      <point x="1005.0" y="1787.0"/>
      <point x="1006.0" y="1660.0" type="curve"/>
      <point x="1006.0" y="1430.0" type="line"/>
    </contour>
    <contour>
      <point x="1816.0" y="1430.0" type="line"/>
      <point x="1816.0" y="1660.0" type="line"/>
      <point x="1815.0" y="1787.0"/>
      <point x="1918.0" y="1890.0"/>
      <point x="2046.0" y="1890.0" type="curve"/>
      <point x="2173.0" y="1890.0"/>
      <point x="2276.0" y="1787.0"/>
      <point x="2276.0" y="1660.0" type="curve" smooth="yes"/>
      <point x="2276.0" y="1532.0"/>
      <point x="2173.0" y="1429.0"/>
      <point x="2046.0" y="1430.0" type="curve"/>
    </contour>
    <contour>
      <point x="2046.0" y="158.0" type="curve"/>
      <point x="1918.0" y="158.0"/>
      <point x="1815.0" y="261.0"/>
      <point x="1816.0" y="388.0" type="curve"/>
      <point x="1816.0" y="620.0" type="line"/>
      <point x="2046.0" y="620.0" type="line"/>
      <point x="2173.0" y="619.0"/>
      <point x="2276.0" y="516.0"/>
      <point x="2276.0" y="388.0" type="curve" smooth="yes"/>
      <point x="2276.0" y="261.0"/>
      <point x="2173.0" y="158.0"/>
    </contour>
    <contour>
      <point x="1210.0" y="824.0" type="line"/>
      <point x="1210.0" y="1226.0" type="line"/>
      <point x="1612.0" y="1226.0" type="line"/>
      <point x="1612.0" y="824.0" type="line"/>
    </contour>
  </outline>
</glyph>
<glyph name="option" format="2">
  <advance width="2880.0"/>
  <unicode hex="2325"/>
  <note>
stroke:
L: 32,32,50%
R: 108,110,50%
B: 208,200,50%
</note>
  <guideline x="202.0" y="1938.0" angle="0.0"/>
  <guideline x="2696.0" y="110.0" angle="0.0"/>
  <outline>
    <contour>
      <point x="1666.0" y="2048.0" type="line"/>
      <point x="1666.0" y="1828.0" type="line"/>
      <point x="2624.0" y="1828.0" type="line"/>
      <point x="2624.0" y="2048.0" type="line"/>
    </contour>
    <contour>
      <point x="256.0" y="1828.0" type="line"/>
      <point x="912.0" y="1828.0" type="line"/>
      <point x="1836.0" y="0.0" type="line"/>
      <point x="2624.0" y="0.0" type="line"/>
      <point x="2624.0" y="220.0" type="line"/>
      <point x="1968.0" y="220.0" type="line"/>
      <point x="1044.0" y="2048.0" type="line"/>
      <point x="256.0" y="2048.0" type="line"/>
    </contour>
  </outline>
</glyph>
<glyph name="deleteright" format="2">
  <advance width="3424.0"/>
  <unicode hex="2326"/>
  <outline>
    <contour>
      <point x="256.0" y="0.0" type="line"/>
      <point x="2168.0" y="0.0" type="line"/>
      <point x="3186.0" y="1024.0" type="line"/>
      <point x="2168.0" y="2048.0" type="line"/>
      <point x="256.0" y="2048.0" type="line"/>
    </contour>
    <contour>
      <point x="1012.0" y="424.0" type="line"/>
      <point x="2066.0" y="1476.0" type="line"/>
      <point x="1920.0" y="1624.0" type="line"/>
      <point x="866.0" y="572.0" type="line"/>
    </contour>
    <contour>
      <point x="1920.0" y="424.0" type="line"/>
      <point x="2066.0" y="572.0" type="line"/>
      <point x="1012.0" y="1624.0" type="line"/>
      <point x="866.0" y="1476.0" type="line"/>
    </contour>
    <contour>
      <point x="472.0" y="220.0" type="line"/>
      <point x="472.0" y="1828.0" type="line"/>
      <point x="2080.0" y="1828.0" type="line"/>
      <point x="2880.0" y="1024.0" type="line"/>
      <point x="2080.0" y="220.0" type="line"/>
    </contour>
  </outline>
</glyph>
<glyph name="clear" format="2">
  <advance width="2940.0"/>
  <unicode hex="2327"/>
  <note>
Based on deleteleft
</note>
  <outline>
    <contour>
      <point x="256.0" y="0.0" type="line"/>
      <point x="2684.0" y="0.0" type="line"/>
      <point x="2684.0" y="2048.0" type="line"/>
      <point x="256.0" y="2048.0" type="line"/>
    </contour>
    <contour>
      <point x="476.0" y="220.0" type="line"/>
      <point x="476.0" y="1828.0" type="line"/>
      <point x="2464.0" y="1828.0" type="line"/>
      <point x="2464.0" y="220.0" type="line"/>
    </contour>
    <contour>
      <point x="1924.0" y="424.0" type="line"/>
      <point x="2070.0" y="572.0" type="line"/>
      <point x="1016.0" y="1624.0" type="line"/>
      <point x="870.0" y="1476.0" type="line"/>
    </contour>
    <contour>
      <point x="1016.0" y="424.0" type="line"/>
      <point x="2070.0" y="1476.0" type="line"/>
      <point x="1924.0" y="1624.0" type="line"/>
      <point x="870.0" y="572.0" type="line"/>
    </contour>
  </outline>
</glyph>
<glyph name="deleteleft" format="2">
  <advance width="3424.0"/>
  <unicode hex="232B"/>
  <note>
stroke:
L: 32
R outer: 108,110,100%
R x: 104,104,50%
B outer: 208,200,100%
B x: 200,200,50%
</note>
  <outline>
    <contour>
      <point x="1256.0" y="0.0" type="line"/>
      <point x="3168.0" y="0.0" type="line"/>
      <point x="3168.0" y="2048.0" type="line"/>
      <point x="1256.0" y="2048.0" type="line"/>
      <point x="238.0" y="1024.0" type="line"/>
    </contour>
    <contour>
      <point x="1345.0" y="220.0" type="line"/>
      <point x="545.0" y="1024.0" type="line"/>
      <point x="1345.0" y="1828.0" type="line"/>
      <point x="2952.0" y="1828.0" type="line"/>
      <point x="2952.0" y="220.0" type="line"/>
    </contour>
    <contour>
      <point x="2559.0" y="572.0" type="line"/>
      <point x="1505.0" y="1624.0" type="line"/>
      <point x="1359.0" y="1476.0" type="line"/>
      <point x="2413.0" y="424.0" type="line"/>
    </contour>
    <contour>
      <point x="1505.0" y="424.0" type="line"/>
      <point x="2559.0" y="1476.0" type="line"/>
      <point x="2413.0" y="1624.0" type="line"/>
      <point x="1359.0" y="572.0" type="line"/>
    </contour>
  </outline>
</glyph>
<glyph name="alternativekeysymbol" format="2">
  <advance width="2880.0"/>
  <unicode hex="2387"/>
  <note>
Mirror copy of option
</note>
  <outline>
    <contour>
      <point x="256.0" y="0.0" type="line"/>
      <point x="1044.0" y="0.0" type="line"/>
      <point x="1968.0" y="1828.0" type="line"/>
      <point x="2624.0" y="1828.0" type="line"/>
      <point x="2624.0" y="2048.0" type="line"/>
      <point x="1836.0" y="2048.0" type="line"/>
      <point x="912.0" y="220.0" type="line"/>
      <point x="256.0" y="220.0" type="line"/>
    </contour>
    <contour>
      <point x="1666.0" y="0.0" type="line"/>
      <point x="2624.0" y="0.0" type="line"/>
      <point x="2624.0" y="220.0" type="line"/>
      <point x="1666.0" y="220.0" type="line"/>
    </contour>
  </outline>
</glyph>
<glyph name="brokenCircleNorthWestArrow" format="2">
  <advance width="2688.0"/>
  <unicode hex="238B"/>
  <note>
L: 32
R arrowhead: 108, 50%
R circle: 110, 100%
B: 208
</note>
  <guideline x="1344.0" y="1024.0" angle="315.0"/>
  <guideline x="672.0" y="1696.0" angle="45.0"/>
  <outline>
    <contour>
      <point x="386.0" y="1830.0" type="line"/>
      <point x="1268.0" y="948.0" type="line"/>
      <point x="1420.0" y="1100.0" type="line"/>
      <point x="538.0" y="1982.0" type="line"/>
    </contour>
    <contour>
      <point x="320.0" y="1344.0" type="line"/>
      <point x="1024.0" y="2048.0" type="line"/>
      <point x="320.0" y="2048.0" type="line"/>
    </contour>
    <contour>
      <point x="1344.0" y="1828.0" type="line"/>
      <point x="1789.0" y="1828.0"/>
      <point x="2147.0" y="1469.0"/>
      <point x="2148.0" y="1024.0" type="curve" smooth="yes"/>
      <point x="2149.0" y="579.0"/>
      <point x="1789.0" y="220.0"/>
      <point x="1344.0" y="220.0" type="curve" smooth="yes"/>
      <point x="900.0" y="220.0"/>
      <point x="539.0" y="580.0"/>
      <point x="540.0" y="1024.0" type="curve"/>
      <point x="320.0" y="1024.0" type="line"/>
      <point x="319.0" y="458.0"/>
      <point x="779.0" y="0.0"/>
      <point x="1344.0" y="0.0" type="curve" smooth="yes"/>
      <point x="1911.0" y="0.0"/>
      <point x="2369.0" y="458.0"/>
      <point x="2368.0" y="1024.0" type="curve" smooth="yes"/>
      <point x="2367.0" y="1590.0"/>
      <point x="1911.0" y="2048.0"/>
      <point x="1344.0" y="2048.0" type="curve"/>
    </contour>
  </outline>
</glyph>
<glyph name="returnsymbol" format="2">
  <advance width="2774.0"/>
  <unicode hex="23CE"/>
  <guideline x="2062.0" y="896.0" angle="0.0"/>
  <outline>
    <contour>
      <point x="872.0" y="302.0" type="line"/>
      <point x="872.0" y="1490.0" type="line"/>
      <point x="278.0" y="896.0" type="line"/>
    </contour>
    <contour>
      <point x="690.0" y="788.0" type="line"/>
      <point x="2488.0" y="788.0" type="line"/>
      <point x="2488.0" y="1004.0" type="line"/>
      <point x="690.0" y="1004.0" type="line"/>
    </contour>
    <contour>
      <point x="2278.0" y="788.0" type="line"/>
      <point x="2494.0" y="788.0" type="line"/>
      <point x="2494.0" y="2048.0" type="line"/>
      <point x="2278.0" y="2048.0" type="line"/>
    </contour>
    <contour>
      <point x="1696.0" y="1832.0" type="line"/>
      <point x="2488.0" y="1832.0" type="line"/>
      <point x="2488.0" y="2048.0" type="line"/>
      <point x="1696.0" y="2048.0" type="line"/>
    </contour>
  </outline>
</glyph>
<glyph name="ejectsymbol" format="2">
  <advance width="2432.0"/>
  <unicode hex="23CF"/>
  <outline>
    <contour>
      <point x="188.0" y="308.0" type="line"/>
      <point x="2242.0" y="308.0" type="line"/>
      <point x="2242.0" y="704.0" type="line"/>
      <point x="188.0" y="704.0" type="line"/>
    </contour>
    <contour>
      <point x="184.0" y="1024.0" type="line"/>
      <point x="2248.0" y="1024.0" type="line"/>
      <point x="1216.0" y="2078.0" type="line"/>
    </contour>
  </outline>
</glyph>
<glyph name="openbullet" format="2">
  <advance width="1280.0"/>
  <unicode hex="25E6"/>
  <guideline x="1104.0" y="816.0" angle="0.0"/>
  <outline>
    <contour>
      <point x="640.0" y="376.0" type="curve" smooth="yes"/>
      <point x="883.0" y="376.0"/>
      <point x="1080.0" y="573.0"/>
      <point x="1080.0" y="816.0" type="curve" smooth="yes"/>
      <point x="1080.0" y="1059.0"/>
      <point x="883.0" y="1256.0"/>
      <point x="640.0" y="1256.0" type="curve" smooth="yes"/>
      <point x="397.0" y="1256.0"/>
      <point x="200.0" y="1059.0"/>
      <point x="200.0" y="816.0" type="curve" smooth="yes"/>
      <point x="200.0" y="573.0"/>
      <point x="397.0" y="376.0"/>
    </contour>
    <contour>
      <point x="640.0" y="552.0" type="curve" smooth="yes"/>
      <point x="494.0" y="552.0"/>
      <point x="376.0" y="670.0"/>
      <point x="376.0" y="816.0" type="curve" smooth="yes"/>
      <point x="376.0" y="962.0"/>
      <point x="494.0" y="1080.0"/>
      <point x="640.0" y="1080.0" type="curve" smooth="yes"/>
      <point x="786.0" y="1080.0"/>
      <point x="904.0" y="962.0"/>
      <point x="904.0" y="816.0" type="curve" smooth="yes"/>
      <point x="904.0" y="670.0"/>
      <point x="786.0" y="552.0"/>
    </contour>
  </outline>
</glyph>
<glyph name="blackSunWithRays" format="2">
  <advance width="3008.0"/>
  <unicode hex="2600"/>
  <outline>
    <contour>
      <point x="1504.0" y="572.0" type="curve" smooth="yes"/>
      <point x="1753.0" y="572.0"/>
      <point x="1956.0" y="775.0"/>
      <point x="1956.0" y="1024.0" type="curve" smooth="yes"/>
      <point x="1956.0" y="1273.0"/>
      <point x="1753.0" y="1476.0"/>
      <point x="1504.0" y="1476.0" type="curve" smooth="yes"/>
      <point x="1255.0" y="1476.0"/>
      <point x="1052.0" y="1273.0"/>
      <point x="1052.0" y="1024.0" type="curve" smooth="yes"/>
      <point x="1052.0" y="775.0"/>
      <point x="1255.0" y="572.0"/>
    </contour>
    <contour>
      <point x="1408.0" y="1676.0" type="line"/>
      <point x="1600.0" y="1676.0" type="line"/>
      <point x="1600.0" y="2284.0" type="line"/>
      <point x="1408.0" y="2284.0" type="line"/>
    </contour>
    <contour>
      <point x="2032.0" y="1416.0" type="line"/>
      <point x="2464.0" y="1848.0" type="line"/>
      <point x="2328.0" y="1984.0" type="line"/>
      <point x="1896.0" y="1552.0" type="line"/>
    </contour>
    <contour>
      <point x="2156.0" y="928.0" type="line"/>
      <point x="2764.0" y="928.0" type="line"/>
      <point x="2764.0" y="1120.0" type="line"/>
      <point x="2156.0" y="1120.0" type="line"/>
    </contour>
    <contour>
      <point x="2328.0" y="64.0" type="line"/>
      <point x="2464.0" y="200.0" type="line"/>
      <point x="2032.0" y="632.0" type="line"/>
      <point x="1896.0" y="496.0" type="line"/>
    </contour>
    <contour>
      <point x="1408.0" y="-236.0" type="line"/>
      <point x="1600.0" y="-236.0" type="line"/>
      <point x="1600.0" y="372.0" type="line"/>
      <point x="1408.0" y="372.0" type="line"/>
    </contour>
    <contour>
      <point x="680.0" y="64.0" type="line"/>
      <point x="1112.0" y="496.0" type="line"/>
      <point x="976.0" y="632.0" type="line"/>
      <point x="544.0" y="200.0" type="line"/>
    </contour>
    <contour>
      <point x="244.0" y="928.0" type="line"/>
      <point x="852.0" y="928.0" type="line"/>
      <point x="852.0" y="1120.0" type="line"/>
      <point x="244.0" y="1120.0" type="line"/>
    </contour>
    <contour>
      <point x="976.0" y="1416.0" type="line"/>
      <point x="1112.0" y="1552.0" type="line"/>
      <point x="680.0" y="1984.0" type="line"/>
      <point x="544.0" y="1848.0" type="line"/>
    </contour>
  </outline>
</glyph>
<glyph name="blackstar" format="2">
  <advance width="2944.0"/>
  <unicode hex="2605"/>
  <guideline x="1514.0" y="2080.0" angle="0.0"/>
  <guideline x="1514.0" y="-32.0" angle="0.0"/>
  <outline>
    <contour>
      <point x="1472.0" y="526.0" type="line"/>
      <point x="2228.0" y="-20.0" type="line"/>
      <point x="1930.0" y="868.0" type="line"/>
      <point x="2688.0" y="1416.0" type="line"/>
      <point x="1760.0" y="1416.0" type="line"/>
      <point x="1472.0" y="2304.0" type="line"/>
      <point x="1184.0" y="1416.0" type="line"/>
      <point x="256.0" y="1416.0" type="line"/>
      <point x="1014.0" y="868.0" type="line"/>
      <point x="716.0" y="-20.0" type="line"/>
    </contour>
  </outline>
</glyph>
<glyph name="whitestar" format="2">
  <advance width="2944.0"/>
  <unicode hex="2606"/>
  <outline>
    <contour>
      <point x="1472.0" y="526.0" type="line"/>
      <point x="2228.0" y="-20.0" type="line"/>
      <point x="1930.0" y="868.0" type="line"/>
      <point x="2688.0" y="1416.0" type="line"/>
      <point x="1760.0" y="1416.0" type="line"/>
      <point x="1472.0" y="2304.0" type="line"/>
      <point x="1184.0" y="1416.0" type="line"/>
      <point x="256.0" y="1416.0" type="line"/>
      <point x="1014.0" y="868.0" type="line"/>
      <point x="716.0" y="-20.0" type="line"/>
    </contour>
    <contour>
      <point x="1472.0" y="774.0" type="line"/>
      <point x="1104.0" y="508.0" type="line"/>
      <point x="1250.0" y="944.0" type="line"/>
      <point x="874.0" y="1216.0" type="line"/>
      <point x="1330.0" y="1216.0" type="line"/>
      <point x="1472.0" y="1656.0" type="line"/>
      <point x="1616.0" y="1216.0" type="line"/>
      <point x="2070.0" y="1216.0" type="line"/>
      <point x="1694.0" y="944.0" type="line"/>
      <point x="1840.0" y="508.0" type="line"/>
    </contour>
  </outline>
</glyph>
<glyph name="sunWithRays" format="2">
  <advance width="3008.0"/>
  <unicode hex="263C"/>
  <guideline x="1564.0" y="232.0" angle="90.0"/>
  <outline>
    <contour>
      <point x="1504.0" y="572.0" type="curve" smooth="yes"/>
      <point x="1753.0" y="572.0"/>
      <point x="1956.0" y="775.0"/>
      <point x="1956.0" y="1024.0" type="curve" smooth="yes"/>
      <point x="1956.0" y="1273.0"/>
      <point x="1753.0" y="1476.0"/>
      <point x="1504.0" y="1476.0" type="curve" smooth="yes"/>
      <point x="1255.0" y="1476.0"/>
      <point x="1052.0" y="1273.0"/>
      <point x="1052.0" y="1024.0" type="curve" smooth="yes"/>
      <point x="1052.0" y="775.0"/>
      <point x="1255.0" y="572.0"/>
    </contour>
    <contour>
      <point x="1504.0" y="772.0" type="curve" smooth="yes"/>
      <point x="1365.0" y="772.0"/>
      <point x="1252.0" y="885.0"/>
      <point x="1252.0" y="1024.0" type="curve" smooth="yes"/>
      <point x="1252.0" y="1163.0"/>
      <point x="1365.0" y="1276.0"/>
      <point x="1504.0" y="1276.0" type="curve" smooth="yes"/>
      <point x="1643.0" y="1276.0"/>
      <point x="1756.0" y="1163.0"/>
      <point x="1756.0" y="1024.0" type="curve" smooth="yes"/>
      <point x="1756.0" y="885.0"/>
      <point x="1643.0" y="772.0"/>
    </contour>
    <contour>
      <point x="1408.0" y="1676.0" type="line"/>
      <point x="1600.0" y="1676.0" type="line"/>
      <point x="1600.0" y="2284.0" type="line"/>
      <point x="1408.0" y="2284.0" type="line"/>
    </contour>
    <contour>
      <point x="2032.0" y="1416.0" type="line"/>
      <point x="2464.0" y="1848.0" type="line"/>
      <point x="2328.0" y="1984.0" type="line"/>
      <point x="1896.0" y="1552.0" type="line"/>
    </contour>
    <contour>
      <point x="2156.0" y="928.0" type="line"/>
      <point x="2764.0" y="928.0" type="line"/>
      <point x="2764.0" y="1120.0" type="line"/>
      <point x="2156.0" y="1120.0" type="line"/>
    </contour>
    <contour>
      <point x="2328.0" y="64.0" type="line"/>
      <point x="2464.0" y="200.0" type="line"/>
      <point x="2032.0" y="632.0" type="line"/>
      <point x="1896.0" y="496.0" type="line"/>
    </contour>
    <contour>
      <point x="1408.0" y="-236.0" type="line"/>
      <point x="1600.0" y="-236.0" type="line"/>
      <point x="1600.0" y="372.0" type="line"/>
      <point x="1408.0" y="372.0" type="line"/>
    </contour>
    <contour>
      <point x="680.0" y="64.0" type="line"/>
      <point x="1112.0" y="496.0" type="line"/>
      <point x="976.0" y="632.0" type="line"/>
      <point x="544.0" y="200.0" type="line"/>
    </contour>
    <contour>
      <point x="244.0" y="928.0" type="line"/>
      <point x="852.0" y="928.0" type="line"/>
      <point x="852.0" y="1120.0" type="line"/>
      <point x="244.0" y="1120.0" type="line"/>
    </contour>
    <contour>
      <point x="976.0" y="1416.0" type="line"/>
      <point x="1112.0" y="1552.0" type="line"/>
      <point x="680.0" y="1984.0" type="line"/>
      <point x="544.0" y="1848.0" type="line"/>
    </contour>
  </outline>
</glyph>
<glyph name="heartWhiteSuit" format="2">
  <advance width="2880.0"/>
  <unicode hex="2661"/>
  <outline>
    <contour>
      <point x="1440.0" y="-32.0" type="line"/>
      <point x="2468.0" y="996.0" type="line" smooth="yes"/>
      <point x="2714.0" y="1242.0"/>
      <point x="2712.0" y="1648.0"/>
      <point x="2468.0" y="1888.0" type="curve" smooth="yes"/>
      <point x="2218.0" y="2134.0"/>
      <point x="1827.0" y="2132.0"/>
      <point x="1576.0" y="1888.0" type="curve" smooth="yes"/>
      <point x="1440.0" y="1756.0" type="line"/>
      <point x="1304.0" y="1888.0" type="line" smooth="yes"/>
      <point x="1053.0" y="2132.0"/>
      <point x="662.0" y="2134.0"/>
      <point x="412.0" y="1888.0" type="curve" smooth="yes"/>
      <point x="168.0" y="1648.0"/>
      <point x="166.0" y="1242.0"/>
      <point x="412.0" y="996.0" type="curve" smooth="yes"/>
    </contour>
    <contour>
      <point x="1440.0" y="279.0" type="line"/>
      <point x="568.0" y="1152.0" type="line" smooth="yes"/>
      <point x="409.0" y="1310.0"/>
      <point x="408.0" y="1576.0"/>
      <point x="566.0" y="1731.0" type="curve" smooth="yes"/>
      <point x="730.0" y="1892.0"/>
      <point x="984.0" y="1892.0"/>
      <point x="1151.0" y="1730.0" type="curve" smooth="yes"/>
      <point x="1440.0" y="1449.0" type="line"/>
      <point x="1729.0" y="1730.0" type="line" smooth="yes"/>
      <point x="1896.0" y="1892.0"/>
      <point x="2150.0" y="1892.0"/>
      <point x="2314.0" y="1731.0" type="curve" smooth="yes"/>
      <point x="2472.0" y="1576.0"/>
      <point x="2471.0" y="1310.0"/>
      <point x="2312.0" y="1152.0" type="curve" smooth="yes"/>
    </contour>
  </outline>
</glyph>
<glyph name="leftLongArrow" format="2">
  <advance width="3776.0"/>
  <unicode hex="27F5"/>
  <guideline x="272.0" y="896.0" angle="0.0"/>
  <guideline x="3424.0" y="732.0" angle="90.0"/>
  <outline>
    <contour>
      <point x="1174.0" y="0.0" type="line"/>
      <point x="1328.0" y="154.0" type="line"/>
      <point x="694.0" y="786.0" type="line"/>
      <point x="3424.0" y="786.0" type="line"/>
      <point x="3424.0" y="1006.0" type="line"/>
      <point x="694.0" y="1006.0" type="line"/>
      <point x="1328.0" y="1640.0" type="line"/>
      <point x="1174.0" y="1792.0" type="line"/>
      <point x="278.0" y="896.0" type="line"/>
    </contour>
  </outline>
</glyph>
<glyph name="rightLongArrow" format="2">
  <advance width="3776.0"/>
  <unicode hex="27F6"/>
  <guideline x="272.0" y="896.0" angle="0.0"/>
  <guideline x="668.0" y="1008.0" angle="90.0"/>
  <outline>
    <contour>
      <point x="2602.0" y="0.0" type="line"/>
      <point x="3498.0" y="896.0" type="line"/>
      <point x="2602.0" y="1792.0" type="line"/>
      <point x="2448.0" y="1640.0" type="line"/>
      <point x="3082.0" y="1006.0" type="line"/>
      <point x="352.0" y="1006.0" type="line"/>
      <point x="352.0" y="786.0" type="line"/>
      <point x="3082.0" y="786.0" type="line"/>
      <point x="2448.0" y="154.0" type="line"/>
    </contour>
  </outline>
</glyph>
<glyph name="leftRightLongArrow" format="2">
  <advance width="4928.0"/>
  <unicode hex="27F7"/>
  <outline>
    <contour>
      <point x="1174.0" y="0.0" type="line"/>
      <point x="1328.0" y="154.0" type="line"/>
      <point x="694.0" y="786.0" type="line"/>
      <point x="4234.0" y="786.0" type="line"/>
      <point x="3600.0" y="154.0" type="line"/>
      <point x="3754.0" y="0.0" type="line"/>
      <point x="4650.0" y="896.0" type="line"/>
      <point x="3754.0" y="1792.0" type="line"/>
      <point x="3600.0" y="1640.0" type="line"/>
      <point x="4234.0" y="1006.0" type="line"/>
      <point x="694.0" y="1006.0" type="line"/>
      <point x="1328.0" y="1640.0" type="line"/>
      <point x="1174.0" y="1792.0" type="line"/>
      <point x="278.0" y="896.0" type="line"/>
    </contour>
  </outline>
</glyph>
<glyph name="upBlackArrow" format="2">
  <advance width="2880.0"/>
  <unicode hex="2B06"/>
  <outline>
    <contour>
      <point x="256.0" y="1024.0" type="line"/>
      <point x="864.0" y="1024.0" type="line"/>
      <point x="864.0" y="0.0" type="line"/>
      <point x="2016.0" y="0.0" type="line"/>
      <point x="2016.0" y="1024.0" type="line"/>
      <point x="2624.0" y="1024.0" type="line"/>
      <point x="1440.0" y="2208.0" type="line"/>
    </contour>
  </outline>
</glyph>
<glyph name="Gbar.1" format="2">
  <advance width="2112.0"/>
  <unicode hex="E003"/>
  <outline>
    <contour>
      <point x="2076.0" y="624.0" type="line"/>
      <point x="1136.0" y="624.0" type="line"/>
      <point x="1136.0" y="424.0" type="line"/>
      <point x="2076.0" y="424.0" type="line"/>
    </contour>
    <component base="G.1"/>
  </outline>
</glyph>
<glyph name="Ghook.1" format="2">
  <advance width="2176.0"/>
  <unicode hex="E004"/>
  <outline>
    <contour>
      <point x="1924.0" y="1408.0" type="line"/>
      <point x="1924.0" y="1624.0" type="line" smooth="yes"/>
      <point x="1924.0" y="1784.0"/>
      <point x="2020.0" y="1832.0"/>
      <point x="2148.0" y="1832.0" type="curve" smooth="yes"/>
      <point x="2176.0" y="1832.0"/>
      <point x="2204.0" y="1828.0"/>
      <point x="2224.0" y="1824.0" type="curve"/>
      <point x="2224.0" y="2024.0" type="line"/>
      <point x="2188.0" y="2036.0"/>
      <point x="2136.0" y="2036.0"/>
      <point x="2088.0" y="2036.0" type="curve" smooth="yes"/>
      <point x="1832.0" y="2036.0"/>
      <point x="1699.0" y="1888.0"/>
      <point x="1684.0" y="1624.0" type="curve" smooth="yes"/>
      <point x="1672.0" y="1408.0" type="line"/>
    </contour>
    <component base="G.1"/>
  </outline>
</glyph>
<glyph name="commaaccent" format="2">
  <unicode hex="F6C3"/>
  <outline>
    <contour>
      <point x="150.0" y="-680.0" type="line"/>
      <point x="334.0" y="-680.0" type="line"/>
      <point x="504.0" y="-162.0" type="line"/>
      <point x="262.0" y="-162.0" type="line"/>
    </contour>
  </outline>
</glyph>
<glyph name="uni1F16A" format="2">
  <advance width="1762.0"/>
  <unicode hex="1F16A"/>
  <outline>
    <contour>
      <point x="478.0" y="1312.0" type="line"/>
      <point x="546.0" y="1312.0" type="line"/>
      <point x="872.0" y="2048.0" type="line"/>
      <point x="740.0" y="2048.0" type="line"/>
      <point x="512.0" y="1508.0" type="line"/>
      <point x="284.0" y="2048.0" type="line"/>
      <point x="152.0" y="2048.0" type="line"/>
    </contour>
    <contour>
      <point x="128.0" y="1312.0" type="line"/>
      <point x="256.0" y="1312.0" type="line"/>
      <point x="256.0" y="2048.0" type="line"/>
      <point x="128.0" y="2048.0" type="line"/>
    </contour>
    <contour>
      <point x="768.0" y="1312.0" type="line"/>
      <point x="896.0" y="1312.0" type="line"/>
      <point x="896.0" y="2048.0" type="line"/>
      <point x="768.0" y="2048.0" type="line"/>
    </contour>
    <contour>
      <point x="1338.0" y="1306.0" type="curve" smooth="yes"/>
      <point x="1523.0" y="1306.0"/>
      <point x="1623.0" y="1397.0"/>
      <point x="1648.0" y="1556.0" type="curve"/>
      <point x="1520.0" y="1556.0" type="line"/>
      <point x="1494.0" y="1465.0"/>
      <point x="1436.0" y="1422.0"/>
      <point x="1338.0" y="1422.0" type="curve" smooth="yes"/>
      <point x="1195.0" y="1422.0"/>
      <point x="1122.0" y="1512.0"/>
      <point x="1122.0" y="1684.0" type="curve" smooth="yes"/>
      <point x="1122.0" y="1853.0"/>
      <point x="1193.0" y="1938.0"/>
      <point x="1332.0" y="1938.0" type="curve" smooth="yes"/>
      <point x="1437.0" y="1938.0"/>
      <point x="1499.0" y="1890.0"/>
      <point x="1520.0" y="1792.0" type="curve"/>
      <point x="1650.0" y="1792.0" type="line"/>
      <point x="1632.0" y="1957.0"/>
      <point x="1521.0" y="2052.0"/>
      <point x="1330.0" y="2052.0" type="curve" smooth="yes"/>
      <point x="1111.0" y="2052.0"/>
      <point x="992.0" y="1926.0"/>
      <point x="992.0" y="1678.0" type="curve" smooth="yes"/>
      <point x="992.0" y="1431.0"/>
      <point x="1122.0" y="1306.0"/>
    </contour>
  </outline>
</glyph>
<glyph name="uni1F16B" format="2">
  <advance width="1720.0"/>
  <unicode hex="1F16B"/>
  <outline>
    <contour>
      <point x="478.0" y="1312.0" type="line"/>
      <point x="546.0" y="1312.0" type="line"/>
      <point x="872.0" y="2048.0" type="line"/>
      <point x="740.0" y="2048.0" type="line"/>
      <point x="512.0" y="1508.0" type="line"/>
      <point x="284.0" y="2048.0" type="line"/>
      <point x="152.0" y="2048.0" type="line"/>
    </contour>
    <contour>
      <point x="128.0" y="1312.0" type="line"/>
      <point x="256.0" y="1312.0" type="line"/>
      <point x="256.0" y="2048.0" type="line"/>
      <point x="128.0" y="2048.0" type="line"/>
    </contour>
    <contour>
      <point x="768.0" y="1312.0" type="line"/>
      <point x="896.0" y="1312.0" type="line"/>
      <point x="896.0" y="2048.0" type="line"/>
      <point x="768.0" y="2048.0" type="line"/>
    </contour>
    <contour>
      <point x="1024.0" y="1312.0" type="line"/>
      <point x="1152.0" y="1312.0" type="line"/>
      <point x="1152.0" y="2048.0" type="line"/>
      <point x="1024.0" y="2048.0" type="line"/>
    </contour>
    <contour>
      <point x="1080.0" y="1312.0" type="line"/>
      <point x="1292.0" y="1312.0" type="line"/>
      <point x="1468.0" y="1312.0"/>
      <point x="1608.0" y="1436.0"/>
      <point x="1608.0" y="1616.0" type="curve" smooth="yes"/>
      <point x="1608.0" y="1744.0" type="line" smooth="yes"/>
      <point x="1608.0" y="1924.0"/>
      <point x="1468.0" y="2048.0"/>
      <point x="1292.0" y="2048.0" type="curve" smooth="yes"/>
      <point x="1076.0" y="2048.0" type="line"/>
      <point x="1076.0" y="1936.0" type="line"/>
      <point x="1292.0" y="1936.0" type="line" smooth="yes"/>
      <point x="1400.0" y="1936.0"/>
      <point x="1480.0" y="1860.0"/>
      <point x="1480.0" y="1744.0" type="curve" smooth="yes"/>
      <point x="1480.0" y="1616.0" type="line" smooth="yes"/>
      <point x="1480.0" y="1500.0"/>
      <point x="1400.0" y="1424.0"/>
      <point x="1292.0" y="1424.0" type="curve" smooth="yes"/>
      <point x="1080.0" y="1424.0" type="line"/>
    </contour>
  </outline>
</glyph>
<glyph name="G.1" format="2">
  <advance width="2112.0"/>
  <outline>
    <contour>
      <point x="1080.0" y="-28.0" type="curve" smooth="yes"/>
      <point x="1351.0" y="-28.0"/>
      <point x="1532.0" y="71.0"/>
      <point x="1688.0" y="250.0" type="curve"/>
      <point x="1698.0" y="250.0" type="line"/>
      <point x="1728.0" y="0.0" type="line"/>
      <point x="1936.0" y="0.0" type="line"/>
      <point x="1936.0" y="1024.0" type="line"/>
      <point x="1136.0" y="1024.0" type="line"/>
      <point x="1136.0" y="804.0" type="line"/>
      <point x="1728.0" y="804.0" type="line"/>
      <point x="1696.0" y="830.0" type="line"/>
      <point x="1696.0" y="465.0"/>
      <point x="1445.0" y="204.0"/>
      <point x="1080.0" y="204.0" type="curve" smooth="yes"/>
      <point x="700.0" y="204.0"/>
      <point x="408.0" y="492.0"/>
      <point x="408.0" y="1024.0" type="curve" smooth="yes"/>
      <point x="408.0" y="1556.0"/>
      <point x="708.0" y="1844.0"/>
      <point x="1072.0" y="1844.0" type="curve" smooth="yes"/>
      <point x="1367.0" y="1844.0"/>
      <point x="1586.0" y="1678.0"/>
      <point x="1668.0" y="1408.0" type="curve"/>
      <point x="1924.0" y="1408.0" type="line"/>
      <point x="1848.0" y="1804.0"/>
      <point x="1504.0" y="2076.0"/>
      <point x="1072.0" y="2076.0" type="curve" smooth="yes"/>
      <point x="548.0" y="2076.0"/>
      <point x="168.0" y="1672.0"/>
      <point x="168.0" y="1024.0" type="curve" smooth="yes"/>
      <point x="168.0" y="376.0"/>
      <point x="536.0" y="-28.0"/>
    </contour>
  </outline>
</glyph>
<glyph name="bracketleft.sups" format="2">
  <advance width="712.0"/>
  <outline>
    <contour>
      <point x="206.0" y="736.0" type="line"/>
      <point x="672.0" y="736.0" type="line"/>
      <point x="672.0" y="932.0" type="line"/>
      <point x="430.0" y="932.0" type="line"/>
      <point x="430.0" y="2232.0" type="line"/>
      <point x="672.0" y="2232.0" type="line"/>
      <point x="672.0" y="2428.0" type="line"/>
      <point x="206.0" y="2428.0" type="line"/>
    </contour>
  </outline>
</glyph>
<glyph name="bracketright.sups" format="2">
  <advance width="712.0"/>
  <outline>
    <contour>
      <point x="40.0" y="736.0" type="line"/>
      <point x="506.0" y="736.0" type="line"/>
      <point x="506.0" y="2428.0" type="line"/>
      <point x="40.0" y="2428.0" type="line"/>
      <point x="40.0" y="2232.0" type="line"/>
      <point x="282.0" y="2232.0" type="line"/>
      <point x="282.0" y="932.0" type="line"/>
      <point x="40.0" y="932.0" type="line"/>
    </contour>
  </outline>
</glyph>
<glyph name="macrongravecomb.cn" format="2">
  <outline>
    <contour>
      <point x="-622.0" y="2640.0" type="line"/>
      <point x="-378.0" y="2640.0" type="line"/>
      <point x="-678.0" y="2944.0" type="line"/>
      <point x="-962.0" y="2944.0" type="line"/>
    </contour>
    <component base="macron" xOffset="-1152.0" yOffset="456.0"/>
  </outline>
</glyph>
